M48
;DRILL file {KiCad (5.0.0)} date 07/28/19 19:46:19
;FORMAT={-:-/ absolute / metric / decimal}
FMAT,2
METRIC,TZ
T1C0.400
T2C0.500
T3C0.700
T4C0.800
T5C0.950
T6C1.100
T7C1.250
T8C1.600
T9C2.000
T10C4.500
%
G90
G05
M71
T1
X101.Y-53.25
X101.Y-54.5
X101.Y-55.5
X101.Y-56.5
X101.Y-57.5
X101.Y-58.5
X101.Y-59.5
X101.Y-60.5
X101.Y-61.5
X101.Y-62.5
X101.Y-63.5
X101.Y-64.5
X101.Y-65.5
X101.Y-66.5
X101.Y-67.5
X101.Y-68.5
X101.Y-69.5
X101.Y-70.5
X101.Y-71.5
X101.Y-72.5
X101.Y-73.5
X101.Y-74.5
X101.Y-75.5
X101.Y-76.5
X101.Y-77.5
X101.Y-78.5
X101.Y-79.5
X101.Y-80.5
X101.Y-81.5
X101.Y-82.5
X101.Y-83.5
X101.Y-84.5
X101.Y-85.5
X101.Y-86.5
X101.Y-87.5
X101.Y-88.5
X101.Y-89.5
X101.Y-90.5
X101.Y-91.5
X101.Y-92.5
X101.Y-93.5
X101.Y-94.5
X101.Y-95.5
X101.Y-96.5
X101.Y-97.5
X101.Y-98.5
X101.Y-99.5
X101.Y-100.5
X101.Y-101.5
X101.Y-102.5
X101.Y-103.5
X101.Y-104.5
X101.Y-105.5
X101.Y-106.5
X101.Y-107.5
X101.Y-108.5
X101.Y-109.5
X101.Y-110.5
X101.Y-111.5
X101.Y-112.5
X101.Y-113.5
X101.Y-114.5
X101.Y-115.5
X101.Y-116.5
X101.Y-117.5
X101.Y-118.5
X101.Y-119.5
X101.Y-120.5
X101.Y-121.5
X101.Y-122.5
X101.Y-123.5
X101.Y-124.5
X101.Y-125.5
X101.Y-126.5
X101.Y-127.5
X101.Y-128.5
X101.Y-129.5
X101.Y-130.5
X101.Y-131.5
X101.Y-132.5
X101.Y-133.5
X101.Y-134.5
X101.75Y-52.
X102.Y-134.75
X103.Y-134.75
X103.25Y-51.
X104.Y-134.75
X104.25Y-51.
X105.Y-134.75
X105.25Y-51.
X106.Y-134.75
X106.25Y-51.
X107.Y-134.75
X107.25Y-51.
X108.Y-134.75
X108.25Y-51.
X108.25Y-122.5
X109.Y-134.75
X109.25Y-51.
X110.Y-134.75
X110.25Y-51.
X110.5Y-55.5
X110.75Y-122.5
X111.Y-134.75
X111.25Y-51.
X111.5Y-55.5
X111.75Y-122.5
X112.Y-134.75
X112.25Y-51.
X112.5Y-55.5
X112.5Y-118.25
X112.75Y-122.5
X113.Y-73.25
X113.Y-73.25
X113.Y-73.25
X113.Y-73.25
X113.Y-134.75
X113.25Y-51.
X113.5Y-55.5
X113.75Y-122.5
X113.9Y-138.2
X114.Y-134.75
X114.25Y-51.
X114.5Y-55.5
X114.75Y-122.5
X115.25Y-51.
X115.5Y-55.5
X115.75Y-122.5
X115.75Y-134.75
X116.25Y-51.
X116.5Y-55.5
X116.75Y-122.5
X117.25Y-51.
X117.5Y-55.5
X117.67Y-130.25
X117.75Y-122.5
X118.25Y-51.
X118.5Y-55.5
X118.75Y-122.5
X119.25Y-51.
X119.5Y-55.5
X119.5Y-149.25
X119.75Y-76.5
X119.75Y-77.5
X119.75Y-78.5
X119.75Y-79.5
X119.75Y-80.5
X119.75Y-81.5
X119.75Y-82.5
X119.75Y-83.5
X119.75Y-84.5
X119.75Y-85.5
X119.75Y-86.5
X119.75Y-87.5
X119.75Y-88.5
X119.75Y-89.5
X119.75Y-90.5
X119.75Y-91.75
X119.75Y-92.75
X119.75Y-122.5
X120.25Y-51.
X120.5Y-55.5
X120.75Y-76.5
X120.75Y-77.5
X120.75Y-78.5
X120.75Y-79.5
X120.75Y-80.5
X120.75Y-81.5
X120.75Y-82.5
X120.75Y-83.5
X120.75Y-84.5
X120.75Y-85.5
X120.75Y-86.5
X120.75Y-90.5
X120.75Y-91.75
X120.75Y-92.75
X120.75Y-122.5
X121.25Y-51.
X121.5Y-55.5
X121.75Y-76.5
X121.75Y-77.5
X121.75Y-78.5
X121.75Y-79.5
X121.75Y-80.5
X121.75Y-81.5
X121.75Y-82.5
X121.75Y-83.5
X121.75Y-84.5
X121.75Y-85.5
X121.75Y-86.5
X121.75Y-90.5
X121.75Y-91.75
X121.75Y-92.75
X121.75Y-122.5
X122.25Y-51.
X122.5Y-55.5
X122.75Y-76.5
X122.75Y-77.5
X122.75Y-78.5
X122.75Y-79.5
X122.75Y-80.5
X122.75Y-81.5
X122.75Y-82.5
X122.75Y-83.5
X122.75Y-84.5
X122.75Y-85.5
X122.75Y-86.5
X122.75Y-90.5
X122.75Y-91.75
X122.75Y-92.75
X122.75Y-122.5
X123.25Y-51.
X123.5Y-55.5
X123.75Y-77.5
X123.75Y-78.5
X123.75Y-79.5
X123.75Y-80.5
X123.75Y-81.5
X123.75Y-82.5
X123.75Y-83.5
X123.75Y-84.5
X123.75Y-85.5
X123.75Y-86.5
X123.75Y-90.5
X123.75Y-91.75
X123.75Y-92.75
X123.75Y-122.5
X124.25Y-51.
X124.3Y-137.6
X124.5Y-55.5
X124.75Y-77.5
X124.75Y-78.5
X124.75Y-79.5
X124.75Y-80.5
X124.75Y-81.5
X124.75Y-82.5
X124.75Y-83.5
X124.75Y-84.5
X124.75Y-85.5
X124.75Y-86.5
X124.75Y-87.5
X124.75Y-88.5
X124.75Y-89.5
X124.75Y-90.5
X124.75Y-91.75
X124.75Y-92.75
X124.75Y-122.5
X125.25Y-51.
X125.5Y-55.5
X125.75Y-77.5
X125.75Y-78.5
X125.75Y-79.5
X125.75Y-80.5
X125.75Y-81.5
X125.75Y-82.5
X125.75Y-83.5
X125.75Y-84.5
X125.75Y-85.5
X125.75Y-86.5
X125.75Y-87.5
X125.75Y-88.5
X125.75Y-89.5
X125.75Y-90.5
X125.75Y-91.75
X125.75Y-92.75
X125.75Y-122.5
X126.25Y-51.
X126.5Y-55.5
X126.5Y-73.25
X126.75Y-77.5
X126.75Y-78.5
X126.75Y-79.5
X126.75Y-80.5
X126.75Y-81.5
X126.75Y-82.5
X126.75Y-83.5
X126.75Y-84.5
X126.75Y-85.5
X126.75Y-86.5
X126.75Y-87.5
X126.75Y-88.5
X126.75Y-89.5
X126.75Y-90.5
X126.75Y-91.75
X126.75Y-92.75
X126.75Y-122.5
X127.25Y-51.
X127.25Y-72.25
X127.5Y-55.5
X127.75Y-77.5
X127.75Y-78.5
X127.75Y-79.5
X127.75Y-80.5
X127.75Y-81.5
X127.75Y-82.5
X127.75Y-83.5
X127.75Y-84.5
X127.75Y-85.5
X127.75Y-86.5
X127.75Y-87.5
X127.75Y-88.5
X127.75Y-89.5
X127.75Y-90.5
X127.75Y-91.75
X127.75Y-92.75
X127.75Y-122.5
X128.25Y-51.
X128.25Y-72.25
X128.5Y-55.5
X128.75Y-89.5
X128.75Y-90.5
X128.75Y-91.75
X128.75Y-92.75
X128.75Y-122.5
X129.212Y-130.888
X129.25Y-51.
X129.25Y-72.25
X129.5Y-55.5
X129.75Y-89.5
X129.75Y-90.5
X129.75Y-91.75
X129.75Y-92.75
X129.75Y-122.5
X130.2Y-136.4
X130.25Y-51.
X130.5Y-55.5
X130.75Y-89.5
X130.75Y-90.5
X130.75Y-91.75
X130.75Y-92.75
X130.75Y-122.5
X130.788Y-130.888
X131.25Y-51.
X131.5Y-55.5
X131.75Y-89.5
X131.75Y-90.5
X131.75Y-91.75
X131.75Y-92.75
X131.75Y-122.5
X132.25Y-51.
X132.5Y-55.5
X132.75Y-89.5
X132.75Y-90.5
X132.75Y-91.75
X132.75Y-92.75
X132.75Y-122.5
X133.25Y-51.
X133.25Y-72.5
X133.5Y-55.5
X133.75Y-89.5
X133.75Y-90.5
X133.75Y-91.75
X133.75Y-92.75
X133.75Y-122.5
X134.25Y-51.
X134.25Y-72.5
X134.5Y-55.5
X134.75Y-75.5
X134.75Y-76.5
X134.75Y-77.5
X134.75Y-78.5
X134.75Y-79.5
X134.75Y-80.5
X134.75Y-81.5
X134.75Y-82.5
X134.75Y-83.5
X134.75Y-84.5
X134.75Y-85.5
X134.75Y-86.5
X134.75Y-87.5
X134.75Y-88.5
X134.75Y-89.5
X134.75Y-90.5
X134.75Y-91.75
X134.75Y-92.75
X134.75Y-122.5
X135.25Y-51.
X135.25Y-72.5
X135.5Y-55.5
X135.75Y-74.5
X135.75Y-75.5
X135.75Y-76.5
X135.75Y-77.5
X135.75Y-78.5
X135.75Y-79.5
X135.75Y-80.5
X135.75Y-81.5
X135.75Y-82.5
X135.75Y-83.5
X135.75Y-84.5
X135.75Y-85.5
X135.75Y-86.5
X135.75Y-87.5
X135.75Y-88.5
X135.75Y-89.5
X135.75Y-90.5
X135.75Y-91.75
X135.75Y-92.75
X136.25Y-51.
X136.25Y-72.5
X136.4Y-137.6
X136.5Y-55.5
X136.75Y-74.5
X136.75Y-75.5
X136.75Y-76.5
X136.75Y-77.5
X136.75Y-78.5
X136.75Y-79.5
X136.75Y-80.5
X136.75Y-81.5
X136.75Y-82.5
X136.75Y-83.5
X136.75Y-84.5
X136.75Y-85.5
X136.75Y-86.5
X136.75Y-87.5
X136.75Y-88.5
X136.75Y-89.5
X136.75Y-90.5
X136.75Y-91.75
X136.75Y-92.75
X137.25Y-51.
X137.25Y-72.5
X137.5Y-55.5
X137.75Y-74.5
X137.75Y-75.5
X137.75Y-76.5
X137.75Y-77.5
X137.75Y-78.5
X137.75Y-79.5
X137.75Y-80.5
X137.75Y-81.5
X137.75Y-82.5
X137.75Y-83.5
X137.75Y-84.5
X137.75Y-85.5
X137.75Y-86.5
X137.75Y-87.5
X137.75Y-88.5
X137.75Y-89.5
X137.75Y-90.5
X137.75Y-91.75
X137.75Y-92.75
X138.25Y-51.
X138.25Y-72.5
X138.25Y-122.5
X138.5Y-55.5
X138.75Y-74.5
X138.75Y-75.5
X138.75Y-76.5
X138.75Y-77.5
X138.75Y-78.5
X138.75Y-79.5
X138.75Y-80.5
X138.75Y-81.5
X138.75Y-82.5
X138.75Y-83.5
X138.75Y-84.5
X138.75Y-85.5
X138.75Y-86.5
X138.75Y-90.5
X138.75Y-91.75
X138.75Y-92.75
X139.25Y-51.
X139.25Y-72.5
X139.25Y-122.5
X139.5Y-55.5
X139.75Y-74.5
X139.75Y-75.5
X139.75Y-76.5
X139.75Y-77.5
X139.75Y-78.5
X139.75Y-79.5
X139.75Y-80.5
X139.75Y-81.5
X139.75Y-82.5
X139.75Y-83.5
X139.75Y-84.5
X139.75Y-85.5
X139.75Y-86.5
X139.75Y-90.5
X139.75Y-91.75
X139.75Y-92.75
X140.25Y-51.
X140.25Y-72.5
X140.25Y-122.5
X140.5Y-55.5
X140.5Y-139.3
X140.71Y-138.25
X140.75Y-74.5
X140.75Y-75.5
X140.75Y-76.5
X140.75Y-77.5
X140.75Y-78.5
X140.75Y-79.5
X140.75Y-80.5
X140.75Y-81.5
X140.75Y-82.5
X140.75Y-83.5
X140.75Y-84.5
X140.75Y-85.5
X140.75Y-86.5
X140.75Y-90.5
X140.75Y-91.75
X140.75Y-92.75
X141.25Y-51.
X141.25Y-72.5
X141.25Y-122.5
X141.5Y-55.5
X141.75Y-74.5
X141.75Y-75.5
X141.75Y-76.5
X141.75Y-77.5
X141.75Y-78.5
X141.75Y-79.5
X141.75Y-80.5
X141.75Y-81.5
X141.75Y-82.5
X141.75Y-83.5
X141.75Y-84.5
X141.75Y-85.5
X141.75Y-86.5
X141.75Y-90.5
X141.75Y-91.75
X141.75Y-92.75
X141.75Y-118.25
X142.25Y-51.
X142.25Y-72.5
X142.25Y-122.5
X142.5Y-55.5
X143.25Y-51.
X143.25Y-72.5
X143.25Y-122.5
X143.5Y-55.5
X144.25Y-51.
X144.25Y-72.5
X144.25Y-122.5
X144.25Y-130.75
X144.5Y-55.5
X145.25Y-51.
X145.25Y-72.5
X145.25Y-73.5
X145.25Y-122.5
X145.5Y-55.5
X146.25Y-51.
X146.25Y-122.5
X146.5Y-55.5
X146.5Y-76.5
X146.5Y-77.5
X146.5Y-78.5
X146.5Y-79.5
X146.5Y-80.5
X146.5Y-81.5
X146.5Y-82.5
X146.5Y-83.5
X146.5Y-84.5
X146.5Y-85.5
X146.5Y-86.5
X146.5Y-87.5
X146.5Y-88.5
X146.5Y-89.5
X146.5Y-90.5
X146.5Y-91.75
X146.5Y-92.75
X147.25Y-51.
X147.25Y-122.5
X147.5Y-55.5
X147.5Y-76.5
X147.5Y-77.5
X147.5Y-78.5
X147.5Y-79.5
X147.5Y-80.5
X147.5Y-81.5
X147.5Y-82.5
X147.5Y-83.5
X147.5Y-84.5
X147.5Y-85.5
X147.5Y-86.5
X147.5Y-90.5
X147.5Y-91.75
X147.5Y-92.75
X148.25Y-51.
X148.25Y-122.5
X148.5Y-55.5
X148.5Y-76.5
X148.5Y-77.5
X148.5Y-78.5
X148.5Y-79.5
X148.5Y-80.5
X148.5Y-81.5
X148.5Y-82.5
X148.5Y-83.5
X148.5Y-84.5
X148.5Y-85.5
X148.5Y-86.5
X148.5Y-90.5
X148.5Y-91.75
X148.5Y-92.75
X149.25Y-51.
X149.25Y-122.5
X149.5Y-55.5
X149.5Y-76.5
X149.5Y-77.5
X149.5Y-78.5
X149.5Y-79.5
X149.5Y-80.5
X149.5Y-81.5
X149.5Y-82.5
X149.5Y-83.5
X149.5Y-84.5
X149.5Y-85.5
X149.5Y-86.5
X149.5Y-90.5
X149.5Y-91.75
X149.5Y-92.75
X150.25Y-51.
X150.25Y-122.5
X150.5Y-55.5
X150.5Y-77.5
X150.5Y-78.5
X150.5Y-79.5
X150.5Y-80.5
X150.5Y-81.5
X150.5Y-82.5
X150.5Y-83.5
X150.5Y-84.5
X150.5Y-85.5
X150.5Y-86.5
X150.5Y-90.5
X150.5Y-91.75
X150.5Y-92.75
X151.25Y-51.
X151.25Y-122.5
X151.378Y-138.559
X151.5Y-55.5
X151.5Y-77.5
X151.5Y-78.5
X151.5Y-79.5
X151.5Y-80.5
X151.5Y-81.5
X151.5Y-82.5
X151.5Y-83.5
X151.5Y-84.5
X151.5Y-85.5
X151.5Y-86.5
X151.5Y-87.5
X151.5Y-88.5
X151.5Y-89.5
X151.5Y-90.5
X151.5Y-91.75
X151.5Y-92.75
X152.25Y-51.
X152.25Y-122.5
X152.5Y-55.5
X152.5Y-77.5
X152.5Y-78.5
X152.5Y-79.5
X152.5Y-80.5
X152.5Y-81.5
X152.5Y-82.5
X152.5Y-83.5
X152.5Y-84.5
X152.5Y-85.5
X152.5Y-86.5
X152.5Y-87.5
X152.5Y-88.5
X152.5Y-89.5
X152.5Y-90.5
X152.5Y-91.75
X152.5Y-92.75
X153.25Y-51.
X153.25Y-122.5
X153.5Y-55.5
X153.5Y-77.5
X153.5Y-78.5
X153.5Y-79.5
X153.5Y-80.5
X153.5Y-81.5
X153.5Y-82.5
X153.5Y-83.5
X153.5Y-84.5
X153.5Y-85.5
X153.5Y-86.5
X153.5Y-87.5
X153.5Y-88.5
X153.5Y-89.5
X153.5Y-90.5
X153.5Y-91.75
X153.5Y-92.75
X154.25Y-51.
X154.25Y-72.5
X154.25Y-122.5
X154.5Y-55.5
X154.5Y-77.5
X154.5Y-78.5
X154.5Y-79.5
X154.5Y-80.5
X154.5Y-81.5
X154.5Y-82.5
X154.5Y-83.5
X154.5Y-84.5
X154.5Y-85.5
X154.5Y-86.5
X154.5Y-87.5
X154.5Y-88.5
X154.5Y-89.5
X154.5Y-90.5
X154.5Y-91.75
X154.5Y-92.75
X155.25Y-51.
X155.25Y-72.5
X155.25Y-122.5
X155.5Y-55.5
X155.5Y-89.5
X155.5Y-90.5
X155.5Y-91.75
X155.5Y-92.75
X156.25Y-51.
X156.25Y-72.5
X156.25Y-122.5
X156.25Y-140.344
X156.5Y-55.5
X156.5Y-89.5
X156.5Y-90.5
X156.5Y-91.75
X156.5Y-92.75
X157.25Y-51.
X157.25Y-122.5
X157.5Y-55.5
X157.5Y-89.5
X157.5Y-90.5
X157.5Y-91.75
X157.5Y-92.75
X157.6Y-131.3
X158.04Y-72.5
X158.1Y-136.25
X158.25Y-51.
X158.25Y-122.5
X158.5Y-55.5
X158.5Y-89.5
X158.5Y-90.5
X158.5Y-91.75
X158.5Y-92.75
X158.75Y-139.45
X159.25Y-51.
X159.25Y-122.5
X159.5Y-55.5
X159.5Y-89.5
X159.5Y-90.5
X159.5Y-91.75
X159.5Y-92.75
X160.Y-72.5
X160.25Y-51.
X160.25Y-122.5
X160.5Y-55.5
X160.5Y-89.5
X160.5Y-90.5
X160.5Y-91.75
X160.5Y-92.75
X161.Y-72.5
X161.25Y-51.
X161.25Y-122.5
X161.5Y-55.5
X161.5Y-75.5
X161.5Y-76.5
X161.5Y-77.5
X161.5Y-78.5
X161.5Y-79.5
X161.5Y-80.5
X161.5Y-81.5
X161.5Y-82.5
X161.5Y-83.5
X161.5Y-84.5
X161.5Y-85.5
X161.5Y-86.5
X161.5Y-87.5
X161.5Y-88.5
X161.5Y-89.5
X161.5Y-90.5
X161.5Y-91.75
X161.5Y-92.75
X162.Y-72.5
X162.25Y-51.
X162.25Y-122.5
X162.5Y-55.5
X162.5Y-74.5
X162.5Y-75.5
X162.5Y-76.5
X162.5Y-77.5
X162.5Y-78.5
X162.5Y-79.5
X162.5Y-80.5
X162.5Y-81.5
X162.5Y-82.5
X162.5Y-83.5
X162.5Y-84.5
X162.5Y-85.5
X162.5Y-86.5
X162.5Y-87.5
X162.5Y-88.5
X162.5Y-89.5
X162.5Y-90.5
X162.5Y-91.75
X162.5Y-92.75
X163.Y-72.5
X163.25Y-51.
X163.5Y-55.5
X163.5Y-74.5
X163.5Y-75.5
X163.5Y-76.5
X163.5Y-77.5
X163.5Y-78.5
X163.5Y-79.5
X163.5Y-80.5
X163.5Y-81.5
X163.5Y-82.5
X163.5Y-83.5
X163.5Y-84.5
X163.5Y-85.5
X163.5Y-86.5
X163.5Y-87.5
X163.5Y-88.5
X163.5Y-89.5
X163.5Y-90.5
X163.5Y-91.75
X163.5Y-92.75
X164.Y-72.5
X164.25Y-51.
X164.25Y-122.5
X164.5Y-55.5
X164.5Y-74.5
X164.5Y-75.5
X164.5Y-76.5
X164.5Y-77.5
X164.5Y-78.5
X164.5Y-79.5
X164.5Y-80.5
X164.5Y-81.5
X164.5Y-82.5
X164.5Y-83.5
X164.5Y-84.5
X164.5Y-85.5
X164.5Y-86.5
X164.5Y-87.5
X164.5Y-88.5
X164.5Y-89.5
X164.5Y-90.5
X164.5Y-91.75
X164.5Y-92.75
X165.Y-72.5
X165.25Y-51.
X165.25Y-122.5
X165.5Y-55.5
X165.5Y-74.5
X165.5Y-75.5
X165.5Y-76.5
X165.5Y-77.5
X165.5Y-78.5
X165.5Y-79.5
X165.5Y-80.5
X165.5Y-81.5
X165.5Y-82.5
X165.5Y-83.5
X165.5Y-84.5
X165.5Y-85.5
X165.5Y-86.5
X165.5Y-90.5
X165.5Y-91.75
X165.5Y-92.75
X166.Y-72.5
X166.25Y-51.
X166.25Y-122.5
X166.5Y-55.5
X166.5Y-74.5
X166.5Y-75.5
X166.5Y-76.5
X166.5Y-77.5
X166.5Y-78.5
X166.5Y-79.5
X166.5Y-80.5
X166.5Y-81.5
X166.5Y-82.5
X166.5Y-83.5
X166.5Y-84.5
X166.5Y-85.5
X166.5Y-86.5
X166.5Y-90.5
X166.5Y-91.75
X166.5Y-92.75
X167.Y-72.5
X167.25Y-51.
X167.25Y-122.5
X167.5Y-55.5
X167.5Y-74.5
X167.5Y-75.5
X167.5Y-76.5
X167.5Y-77.5
X167.5Y-78.5
X167.5Y-79.5
X167.5Y-80.5
X167.5Y-81.5
X167.5Y-82.5
X167.5Y-83.5
X167.5Y-84.5
X167.5Y-85.5
X167.5Y-86.5
X167.5Y-90.5
X167.5Y-91.75
X167.5Y-92.75
X168.Y-72.5
X168.07Y-140.344
X168.25Y-51.
X168.25Y-122.5
X168.5Y-55.5
X168.5Y-74.5
X168.5Y-75.5
X168.5Y-76.5
X168.5Y-77.5
X168.5Y-78.5
X168.5Y-79.5
X168.5Y-80.5
X168.5Y-81.5
X168.5Y-82.5
X168.5Y-83.5
X168.5Y-84.5
X168.5Y-85.5
X168.5Y-86.5
X168.5Y-90.5
X168.5Y-91.75
X168.5Y-92.75
X168.75Y-118.25
X169.Y-72.5
X169.25Y-51.
X169.25Y-122.5
X169.5Y-55.5
X170.Y-72.5
X170.25Y-51.
X170.25Y-122.5
X170.5Y-55.5
X170.524Y-138.25
X171.Y-72.5
X171.Y-130.92
X171.25Y-51.
X171.25Y-122.5
X171.5Y-55.5
X172.25Y-51.
X172.25Y-122.5
X172.5Y-55.5
X173.25Y-51.
X173.25Y-122.5
X173.5Y-55.5
X173.5Y-76.5
X173.5Y-77.5
X173.5Y-78.5
X173.5Y-79.5
X173.5Y-80.5
X173.5Y-81.5
X173.5Y-82.5
X173.5Y-83.5
X173.5Y-84.5
X173.5Y-85.5
X173.5Y-86.5
X173.5Y-87.5
X173.5Y-88.5
X173.5Y-89.5
X173.5Y-90.5
X173.5Y-91.75
X173.5Y-92.75
X173.5Y-93.75
X174.25Y-51.
X174.25Y-122.5
X174.5Y-55.5
X174.5Y-76.5
X174.5Y-77.5
X174.5Y-78.5
X174.5Y-79.5
X174.5Y-80.5
X174.5Y-81.5
X174.5Y-82.5
X174.5Y-83.5
X174.5Y-84.5
X174.5Y-85.5
X174.5Y-86.5
X174.5Y-90.5
X174.5Y-91.75
X174.5Y-92.75
X174.5Y-93.75
X175.25Y-51.
X175.25Y-122.5
X175.5Y-55.5
X175.5Y-76.5
X175.5Y-77.5
X175.5Y-78.5
X175.5Y-79.5
X175.5Y-80.5
X175.5Y-81.5
X175.5Y-82.5
X175.5Y-83.5
X175.5Y-84.5
X175.5Y-85.5
X175.5Y-86.5
X175.5Y-90.5
X175.5Y-91.75
X175.5Y-92.75
X175.5Y-93.75
X176.25Y-51.
X176.5Y-55.5
X176.5Y-76.5
X176.5Y-77.5
X176.5Y-78.5
X176.5Y-79.5
X176.5Y-80.5
X176.5Y-81.5
X176.5Y-82.5
X176.5Y-83.5
X176.5Y-84.5
X176.5Y-85.5
X176.5Y-86.5
X176.5Y-90.5
X176.5Y-91.75
X176.5Y-92.75
X176.5Y-93.75
X177.25Y-51.
X177.5Y-55.5
X177.5Y-77.5
X177.5Y-78.5
X177.5Y-79.5
X177.5Y-80.5
X177.5Y-81.5
X177.5Y-82.5
X177.5Y-83.5
X177.5Y-84.5
X177.5Y-85.5
X177.5Y-86.5
X177.5Y-90.5
X177.5Y-91.75
X177.5Y-92.75
X177.5Y-93.75
X177.75Y-122.5
X178.25Y-51.
X178.5Y-55.5
X178.5Y-77.5
X178.5Y-78.5
X178.5Y-79.5
X178.5Y-80.5
X178.5Y-81.5
X178.5Y-82.5
X178.5Y-83.5
X178.5Y-84.5
X178.5Y-85.5
X178.5Y-86.5
X178.5Y-87.5
X178.5Y-88.5
X178.5Y-89.5
X178.5Y-90.5
X178.5Y-91.75
X178.5Y-92.75
X178.5Y-93.75
X179.25Y-51.
X179.5Y-55.5
X179.5Y-77.5
X179.5Y-78.5
X179.5Y-79.5
X179.5Y-80.5
X179.5Y-81.5
X179.5Y-82.5
X179.5Y-83.5
X179.5Y-84.5
X179.5Y-85.5
X179.5Y-86.5
X179.5Y-87.5
X179.5Y-88.5
X179.5Y-89.5
X179.5Y-90.5
X179.5Y-91.75
X179.5Y-92.75
X179.5Y-93.75
X179.6Y-136.1
X180.25Y-51.
X180.25Y-122.5
X180.5Y-55.5
X180.5Y-77.5
X180.5Y-78.5
X180.5Y-79.5
X180.5Y-80.5
X180.5Y-81.5
X180.5Y-82.5
X180.5Y-83.5
X180.5Y-84.5
X180.5Y-85.5
X180.5Y-86.5
X180.5Y-87.5
X180.5Y-88.5
X180.5Y-89.5
X180.5Y-90.5
X180.5Y-91.75
X180.5Y-92.75
X180.5Y-93.75
X181.25Y-51.
X181.25Y-122.5
X181.5Y-55.5
X181.5Y-77.5
X181.5Y-78.5
X181.5Y-79.5
X181.5Y-80.5
X181.5Y-81.5
X181.5Y-82.5
X181.5Y-83.5
X181.5Y-84.5
X181.5Y-85.5
X181.5Y-86.5
X181.5Y-87.5
X181.5Y-88.5
X181.5Y-89.5
X181.5Y-90.5
X181.5Y-91.75
X181.5Y-92.75
X182.25Y-51.
X182.25Y-122.5
X182.5Y-55.5
X182.5Y-89.5
X182.5Y-90.5
X182.5Y-91.75
X182.5Y-92.75
X183.25Y-51.
X183.25Y-122.5
X183.5Y-55.5
X183.5Y-89.5
X183.5Y-90.5
X183.5Y-91.75
X183.5Y-92.75
X184.25Y-51.
X184.25Y-122.5
X184.5Y-55.5
X184.5Y-89.5
X184.5Y-90.5
X184.5Y-91.75
X184.5Y-92.75
X185.04Y-71.5
X185.25Y-51.
X185.25Y-122.5
X185.5Y-55.5
X185.5Y-89.5
X185.5Y-90.5
X185.5Y-91.75
X185.5Y-92.75
X186.25Y-51.
X186.25Y-122.5
X186.5Y-55.5
X186.5Y-89.5
X186.5Y-90.5
X186.5Y-91.75
X186.5Y-92.75
X187.Y-72.5
X187.25Y-51.
X187.25Y-122.5
X187.5Y-55.5
X187.5Y-89.5
X187.5Y-90.5
X187.5Y-91.75
X187.5Y-92.75
X188.Y-72.5
X188.25Y-51.
X188.25Y-122.5
X188.5Y-55.5
X188.5Y-76.5
X188.5Y-77.5
X188.5Y-78.5
X188.5Y-79.5
X188.5Y-80.5
X188.5Y-81.5
X188.5Y-82.5
X188.5Y-83.5
X188.5Y-84.5
X188.5Y-85.5
X188.5Y-86.5
X188.5Y-87.5
X188.5Y-88.5
X188.5Y-89.5
X188.5Y-90.5
X188.5Y-91.75
X188.5Y-92.75
X189.Y-72.5
X189.25Y-51.
X189.25Y-122.5
X189.25Y-123.5
X189.25Y-124.5
X189.25Y-125.5
X189.25Y-126.5
X189.25Y-127.5
X189.25Y-128.5
X189.25Y-129.5
X189.25Y-130.5
X189.25Y-131.5
X189.25Y-132.5
X189.25Y-133.5
X189.5Y-55.5
X189.5Y-76.5
X189.5Y-77.5
X189.5Y-78.5
X189.5Y-79.5
X189.5Y-80.5
X189.5Y-81.5
X189.5Y-82.5
X189.5Y-83.5
X189.5Y-84.5
X189.5Y-85.5
X189.5Y-86.5
X189.5Y-87.5
X189.5Y-88.5
X189.5Y-89.5
X189.5Y-90.5
X189.5Y-91.75
X189.5Y-92.75
X190.Y-73.
X190.Y-73.
X190.Y-73.
X190.Y-74.
X190.Y-75.
X190.Y-134.5
X190.25Y-51.
X190.5Y-55.5
X190.5Y-76.5
X190.5Y-77.5
X190.5Y-78.5
X190.5Y-79.5
X190.5Y-80.5
X190.5Y-81.5
X190.5Y-82.5
X190.5Y-83.5
X190.5Y-84.5
X190.5Y-85.5
X190.5Y-86.5
X190.5Y-87.5
X190.5Y-88.5
X190.5Y-89.5
X190.5Y-90.5
X190.5Y-91.75
X190.5Y-92.75
X191.Y-75.
X191.Y-134.5
X191.25Y-51.
X191.5Y-55.5
X191.5Y-76.5
X191.5Y-77.5
X191.5Y-78.5
X191.5Y-79.5
X191.5Y-80.5
X191.5Y-81.5
X191.5Y-82.5
X191.5Y-83.5
X191.5Y-84.5
X191.5Y-85.5
X191.5Y-86.5
X191.5Y-87.5
X191.5Y-88.5
X191.5Y-89.5
X191.5Y-90.5
X191.5Y-91.75
X191.5Y-92.75
X192.Y-75.
X192.Y-134.5
X192.25Y-51.
X192.5Y-55.5
X192.5Y-76.5
X192.5Y-77.5
X192.5Y-78.5
X192.5Y-79.5
X192.5Y-80.5
X192.5Y-81.5
X192.5Y-82.5
X192.5Y-83.5
X192.5Y-84.5
X192.5Y-85.5
X192.5Y-86.5
X192.5Y-90.5
X192.5Y-91.75
X192.5Y-92.75
X192.75Y-56.5
X193.Y-75.
X193.Y-134.5
X193.25Y-51.
X193.5Y-76.5
X193.5Y-77.5
X193.5Y-78.5
X193.5Y-79.5
X193.5Y-80.5
X193.5Y-81.5
X193.5Y-82.5
X193.5Y-83.5
X193.5Y-84.5
X193.5Y-85.5
X193.5Y-86.5
X193.5Y-90.5
X193.5Y-91.75
X193.5Y-92.75
X193.75Y-57.25
X194.Y-75.
X194.Y-134.5
X194.25Y-51.
X194.5Y-76.5
X194.5Y-77.5
X194.5Y-78.5
X194.5Y-79.5
X194.5Y-80.5
X194.5Y-81.5
X194.5Y-82.5
X194.5Y-83.5
X194.5Y-84.5
X194.5Y-85.5
X194.5Y-86.5
X194.5Y-90.5
X194.5Y-91.75
X194.5Y-92.75
X194.75Y-57.75
X195.Y-75.
X195.Y-134.5
X195.25Y-51.
X195.5Y-76.5
X195.5Y-77.5
X195.5Y-78.5
X195.5Y-79.5
X195.5Y-80.5
X195.5Y-81.5
X195.5Y-82.5
X195.5Y-83.5
X195.5Y-84.5
X195.5Y-85.5
X195.5Y-86.5
X195.5Y-90.5
X195.5Y-91.75
X195.5Y-92.75
X196.Y-58.
X196.Y-59.
X196.Y-60.
X196.Y-61.
X196.Y-62.
X196.Y-63.
X196.Y-64.
X196.Y-65.
X196.Y-66.
X196.Y-67.
X196.Y-68.
X196.Y-69.
X196.Y-70.
X196.Y-71.
X196.Y-72.
X196.Y-73.
X196.Y-74.
X196.Y-75.
X196.Y-134.5
X196.25Y-51.
X197.Y-134.5
X197.5Y-51.25
X198.Y-134.5
X198.5Y-52.
X199.Y-53.25
X199.Y-54.5
X199.Y-55.5
X199.Y-56.5
X199.Y-57.5
X199.Y-57.5
X199.Y-57.5
X199.Y-58.5
X199.Y-59.5
X199.Y-60.5
X199.Y-61.5
X199.Y-62.5
X199.Y-63.5
X199.Y-64.5
X199.Y-65.5
X199.Y-66.5
X199.Y-67.5
X199.Y-68.5
X199.Y-69.5
X199.Y-70.5
X199.Y-71.5
X199.Y-72.5
X199.Y-73.5
X199.Y-74.5
X199.Y-75.5
X199.Y-76.5
X199.Y-77.5
X199.Y-78.5
X199.Y-79.5
X199.Y-80.5
X199.Y-81.5
X199.Y-82.5
X199.Y-83.5
X199.Y-84.5
X199.Y-85.5
X199.Y-86.5
X199.Y-87.5
X199.Y-88.5
X199.Y-89.5
X199.Y-90.5
X199.Y-91.5
X199.Y-92.5
X199.Y-93.5
X199.Y-94.5
X199.Y-95.5
X199.Y-96.5
X199.Y-97.5
X199.Y-98.5
X199.Y-99.5
X199.Y-100.5
X199.Y-101.5
X199.Y-102.5
X199.Y-103.5
X199.Y-104.5
X199.Y-105.5
X199.Y-106.5
X199.Y-107.5
X199.Y-108.5
X199.Y-109.5
X199.Y-110.5
X199.Y-111.5
X199.Y-112.5
X199.Y-113.5
X199.Y-114.5
X199.Y-115.5
X199.Y-116.5
X199.Y-117.5
X199.Y-118.5
X199.Y-119.5
X199.Y-120.5
X199.Y-121.5
X199.Y-122.5
X199.Y-123.5
X199.Y-124.5
X199.Y-125.5
X199.Y-126.5
X199.Y-127.5
X199.Y-128.5
X199.Y-129.5
X199.Y-130.5
X199.Y-131.5
X199.Y-132.5
X199.Y-133.5
X199.Y-134.5
T2
X175.8Y-103.87
X175.8Y-105.13
X176.55Y-102.84
X176.55Y-106.16
X177.75Y-102.45
X177.75Y-106.55
X179.08Y-102.45
X179.08Y-106.55
X180.42Y-102.45
X180.42Y-106.55
X181.75Y-102.45
X181.75Y-106.55
X182.95Y-102.84
X182.95Y-106.16
X183.7Y-103.87
X183.7Y-105.13
X185.8Y-103.87
X185.8Y-105.13
X186.55Y-102.84
X186.55Y-106.16
X187.75Y-102.45
X187.75Y-106.55
X189.08Y-102.45
X189.08Y-106.55
X190.42Y-102.45
X190.42Y-106.55
X191.75Y-102.45
X191.75Y-106.55
X192.95Y-102.84
X192.95Y-106.16
X193.7Y-103.87
X193.7Y-105.13
X122.05Y-103.87
X122.05Y-105.13
X122.8Y-102.84
X122.8Y-106.16
X124.Y-102.45
X124.Y-106.55
X125.33Y-102.45
X125.33Y-106.55
X126.67Y-102.45
X126.67Y-106.55
X128.Y-102.45
X128.Y-106.55
X129.2Y-102.84
X129.2Y-106.16
X129.95Y-103.87
X129.95Y-105.13
X132.05Y-103.87
X132.05Y-105.13
X132.8Y-102.84
X132.8Y-106.16
X134.Y-102.45
X134.Y-106.55
X135.33Y-102.45
X135.33Y-106.55
X136.67Y-102.45
X136.67Y-106.55
X138.Y-102.45
X138.Y-106.55
X139.2Y-102.84
X139.2Y-106.16
X139.95Y-103.87
X139.95Y-105.13
X148.96Y-103.87
X148.96Y-105.13
X149.71Y-102.84
X149.71Y-106.16
X150.91Y-102.45
X150.91Y-106.55
X152.24Y-102.45
X152.24Y-106.55
X153.58Y-102.45
X153.58Y-106.55
X154.91Y-102.45
X154.91Y-106.55
X156.11Y-102.84
X156.11Y-106.16
X156.86Y-103.87
X156.86Y-105.13
X158.96Y-103.87
X158.96Y-105.13
X159.71Y-102.84
X159.71Y-106.16
X160.91Y-102.45
X160.91Y-106.55
X162.24Y-102.45
X162.24Y-106.55
X163.58Y-102.45
X163.58Y-106.55
X164.91Y-102.45
X164.91Y-106.55
X166.11Y-102.84
X166.11Y-106.16
X166.86Y-103.87
X166.86Y-105.13
T3
X114.975Y-146.922
X116.475Y-146.922
X117.975Y-146.922
X119.475Y-146.922
X120.975Y-146.922
X122.475Y-146.922
T4
X140.5Y-120.38
X140.5Y-128.
X143.04Y-120.38
X143.04Y-128.
X145.58Y-120.38
X145.58Y-128.
X148.12Y-120.38
X148.12Y-128.
X182.84Y-125.9
X184.75Y-125.9
X186.66Y-125.9
X129.09Y-125.9
X131.Y-125.9
X132.91Y-125.9
X167.5Y-120.38
X167.5Y-128.
X170.04Y-120.38
X170.04Y-128.
X172.58Y-120.38
X172.58Y-128.
X175.12Y-120.38
X175.12Y-128.
X113.5Y-120.38
X113.5Y-128.
X116.04Y-120.38
X116.04Y-128.
X118.58Y-120.38
X118.58Y-128.
X121.12Y-120.38
X121.12Y-128.
X156.Y-125.9
X157.91Y-125.9
X159.82Y-125.9
T5
X152.5Y-145.5
X155.Y-145.5
X157.5Y-145.5
X160.Y-145.5
X162.5Y-145.5
X165.Y-145.5
X167.5Y-145.5
X170.Y-145.5
X180.Y-145.5
X182.5Y-145.5
X185.Y-145.5
X187.5Y-145.5
X132.5Y-145.5
X135.Y-145.5
X137.5Y-145.5
X140.Y-145.5
X142.5Y-145.5
T6
X182.5Y-95.
X185.04Y-95.
X187.58Y-95.
X155.5Y-95.
X158.04Y-95.
X160.58Y-95.
X182.5Y-74.5
X185.04Y-74.5
X187.58Y-74.5
X155.5Y-74.5
X158.04Y-74.5
X160.58Y-74.5
X128.5Y-95.
X131.04Y-95.
X133.58Y-95.
X128.5Y-74.5
X131.04Y-74.5
X133.58Y-74.5
T7
X108.5Y-100.5
X108.5Y-103.04
X108.5Y-105.58
T8
X149.Y-68.
X166.8Y-68.
X176.Y-68.
X193.8Y-68.
X176.Y-88.5
X193.8Y-88.5
X122.Y-68.
X139.8Y-68.
X122.Y-88.5
X139.8Y-88.5
X149.Y-88.5
X166.8Y-88.5
T10
X105.5Y-69.5
X113.Y-69.5
T9
X177.75Y-104.5G85X181.75Y-104.5
G05
X187.75Y-104.5G85X191.75Y-104.5
G05
X124.Y-104.5G85X128.Y-104.5
G05
X134.Y-104.5G85X138.Y-104.5
G05
X150.91Y-104.5G85X154.91Y-104.5
G05
X160.91Y-104.5G85X164.91Y-104.5
G05
T0
M30
