G04 #@! TF.GenerationSoftware,KiCad,Pcbnew,(5.0.0)*
G04 #@! TF.CreationDate,2019-07-28T19:46:13+09:00*
G04 #@! TF.ProjectId,ver.2019_part7,7665722E323031395F70617274372E6B,rev?*
G04 #@! TF.SameCoordinates,Original*
G04 #@! TF.FileFunction,Soldermask,Top*
G04 #@! TF.FilePolarity,Negative*
%FSLAX46Y46*%
G04 Gerber Fmt 4.6, Leading zero omitted, Abs format (unit mm)*
G04 Created by KiCad (PCBNEW (5.0.0)) date 07/28/19 19:46:13*
%MOMM*%
%LPD*%
G01*
G04 APERTURE LIST*
%ADD10C,2.800000*%
%ADD11R,2.800000X2.800000*%
%ADD12R,4.800000X2.300000*%
%ADD13C,0.100000*%
%ADD14C,1.275000*%
%ADD15C,6.400000*%
%ADD16R,2.100000X2.350000*%
%ADD17O,2.100000X2.350000*%
%ADD18R,1.500000X1.500000*%
%ADD19C,1.500000*%
%ADD20C,3.600000*%
%ADD21R,2.305000X2.400000*%
%ADD22O,2.305000X2.400000*%
%ADD23R,1.200000X1.800000*%
%ADD24R,2.000000X2.000000*%
%ADD25O,2.000000X2.000000*%
%ADD26R,2.275000X2.275000*%
%ADD27C,2.275000*%
%ADD28O,9.400000X6.400000*%
%ADD29R,1.900000X1.900000*%
%ADD30C,1.900000*%
%ADD31C,1.200000*%
%ADD32C,1.200000*%
G04 APERTURE END LIST*
D10*
G04 #@! TO.C,U17*
X139800000Y-88500000D03*
D11*
X122000000Y-88500000D03*
G04 #@! TD*
D12*
G04 #@! TO.C,C1*
X113850000Y-82500000D03*
X105150000Y-82500000D03*
G04 #@! TD*
D13*
G04 #@! TO.C,C7*
G36*
X179137493Y-132901535D02*
X179168435Y-132906125D01*
X179198778Y-132913725D01*
X179228230Y-132924263D01*
X179256508Y-132937638D01*
X179283338Y-132953719D01*
X179308463Y-132972353D01*
X179331640Y-132993360D01*
X179352647Y-133016537D01*
X179371281Y-133041662D01*
X179387362Y-133068492D01*
X179400737Y-133096770D01*
X179411275Y-133126222D01*
X179418875Y-133156565D01*
X179423465Y-133187507D01*
X179425000Y-133218750D01*
X179425000Y-133856250D01*
X179423465Y-133887493D01*
X179418875Y-133918435D01*
X179411275Y-133948778D01*
X179400737Y-133978230D01*
X179387362Y-134006508D01*
X179371281Y-134033338D01*
X179352647Y-134058463D01*
X179331640Y-134081640D01*
X179308463Y-134102647D01*
X179283338Y-134121281D01*
X179256508Y-134137362D01*
X179228230Y-134150737D01*
X179198778Y-134161275D01*
X179168435Y-134168875D01*
X179137493Y-134173465D01*
X179106250Y-134175000D01*
X178393750Y-134175000D01*
X178362507Y-134173465D01*
X178331565Y-134168875D01*
X178301222Y-134161275D01*
X178271770Y-134150737D01*
X178243492Y-134137362D01*
X178216662Y-134121281D01*
X178191537Y-134102647D01*
X178168360Y-134081640D01*
X178147353Y-134058463D01*
X178128719Y-134033338D01*
X178112638Y-134006508D01*
X178099263Y-133978230D01*
X178088725Y-133948778D01*
X178081125Y-133918435D01*
X178076535Y-133887493D01*
X178075000Y-133856250D01*
X178075000Y-133218750D01*
X178076535Y-133187507D01*
X178081125Y-133156565D01*
X178088725Y-133126222D01*
X178099263Y-133096770D01*
X178112638Y-133068492D01*
X178128719Y-133041662D01*
X178147353Y-133016537D01*
X178168360Y-132993360D01*
X178191537Y-132972353D01*
X178216662Y-132953719D01*
X178243492Y-132937638D01*
X178271770Y-132924263D01*
X178301222Y-132913725D01*
X178331565Y-132906125D01*
X178362507Y-132901535D01*
X178393750Y-132900000D01*
X179106250Y-132900000D01*
X179137493Y-132901535D01*
X179137493Y-132901535D01*
G37*
D14*
X178750000Y-133537500D03*
D13*
G36*
X179137493Y-131326535D02*
X179168435Y-131331125D01*
X179198778Y-131338725D01*
X179228230Y-131349263D01*
X179256508Y-131362638D01*
X179283338Y-131378719D01*
X179308463Y-131397353D01*
X179331640Y-131418360D01*
X179352647Y-131441537D01*
X179371281Y-131466662D01*
X179387362Y-131493492D01*
X179400737Y-131521770D01*
X179411275Y-131551222D01*
X179418875Y-131581565D01*
X179423465Y-131612507D01*
X179425000Y-131643750D01*
X179425000Y-132281250D01*
X179423465Y-132312493D01*
X179418875Y-132343435D01*
X179411275Y-132373778D01*
X179400737Y-132403230D01*
X179387362Y-132431508D01*
X179371281Y-132458338D01*
X179352647Y-132483463D01*
X179331640Y-132506640D01*
X179308463Y-132527647D01*
X179283338Y-132546281D01*
X179256508Y-132562362D01*
X179228230Y-132575737D01*
X179198778Y-132586275D01*
X179168435Y-132593875D01*
X179137493Y-132598465D01*
X179106250Y-132600000D01*
X178393750Y-132600000D01*
X178362507Y-132598465D01*
X178331565Y-132593875D01*
X178301222Y-132586275D01*
X178271770Y-132575737D01*
X178243492Y-132562362D01*
X178216662Y-132546281D01*
X178191537Y-132527647D01*
X178168360Y-132506640D01*
X178147353Y-132483463D01*
X178128719Y-132458338D01*
X178112638Y-132431508D01*
X178099263Y-132403230D01*
X178088725Y-132373778D01*
X178081125Y-132343435D01*
X178076535Y-132312493D01*
X178075000Y-132281250D01*
X178075000Y-131643750D01*
X178076535Y-131612507D01*
X178081125Y-131581565D01*
X178088725Y-131551222D01*
X178099263Y-131521770D01*
X178112638Y-131493492D01*
X178128719Y-131466662D01*
X178147353Y-131441537D01*
X178168360Y-131418360D01*
X178191537Y-131397353D01*
X178216662Y-131378719D01*
X178243492Y-131362638D01*
X178271770Y-131349263D01*
X178301222Y-131338725D01*
X178331565Y-131331125D01*
X178362507Y-131326535D01*
X178393750Y-131325000D01*
X179106250Y-131325000D01*
X179137493Y-131326535D01*
X179137493Y-131326535D01*
G37*
D14*
X178750000Y-131962500D03*
G04 #@! TD*
D13*
G04 #@! TO.C,C8*
G36*
X164137493Y-132901535D02*
X164168435Y-132906125D01*
X164198778Y-132913725D01*
X164228230Y-132924263D01*
X164256508Y-132937638D01*
X164283338Y-132953719D01*
X164308463Y-132972353D01*
X164331640Y-132993360D01*
X164352647Y-133016537D01*
X164371281Y-133041662D01*
X164387362Y-133068492D01*
X164400737Y-133096770D01*
X164411275Y-133126222D01*
X164418875Y-133156565D01*
X164423465Y-133187507D01*
X164425000Y-133218750D01*
X164425000Y-133856250D01*
X164423465Y-133887493D01*
X164418875Y-133918435D01*
X164411275Y-133948778D01*
X164400737Y-133978230D01*
X164387362Y-134006508D01*
X164371281Y-134033338D01*
X164352647Y-134058463D01*
X164331640Y-134081640D01*
X164308463Y-134102647D01*
X164283338Y-134121281D01*
X164256508Y-134137362D01*
X164228230Y-134150737D01*
X164198778Y-134161275D01*
X164168435Y-134168875D01*
X164137493Y-134173465D01*
X164106250Y-134175000D01*
X163393750Y-134175000D01*
X163362507Y-134173465D01*
X163331565Y-134168875D01*
X163301222Y-134161275D01*
X163271770Y-134150737D01*
X163243492Y-134137362D01*
X163216662Y-134121281D01*
X163191537Y-134102647D01*
X163168360Y-134081640D01*
X163147353Y-134058463D01*
X163128719Y-134033338D01*
X163112638Y-134006508D01*
X163099263Y-133978230D01*
X163088725Y-133948778D01*
X163081125Y-133918435D01*
X163076535Y-133887493D01*
X163075000Y-133856250D01*
X163075000Y-133218750D01*
X163076535Y-133187507D01*
X163081125Y-133156565D01*
X163088725Y-133126222D01*
X163099263Y-133096770D01*
X163112638Y-133068492D01*
X163128719Y-133041662D01*
X163147353Y-133016537D01*
X163168360Y-132993360D01*
X163191537Y-132972353D01*
X163216662Y-132953719D01*
X163243492Y-132937638D01*
X163271770Y-132924263D01*
X163301222Y-132913725D01*
X163331565Y-132906125D01*
X163362507Y-132901535D01*
X163393750Y-132900000D01*
X164106250Y-132900000D01*
X164137493Y-132901535D01*
X164137493Y-132901535D01*
G37*
D14*
X163750000Y-133537500D03*
D13*
G36*
X164137493Y-131326535D02*
X164168435Y-131331125D01*
X164198778Y-131338725D01*
X164228230Y-131349263D01*
X164256508Y-131362638D01*
X164283338Y-131378719D01*
X164308463Y-131397353D01*
X164331640Y-131418360D01*
X164352647Y-131441537D01*
X164371281Y-131466662D01*
X164387362Y-131493492D01*
X164400737Y-131521770D01*
X164411275Y-131551222D01*
X164418875Y-131581565D01*
X164423465Y-131612507D01*
X164425000Y-131643750D01*
X164425000Y-132281250D01*
X164423465Y-132312493D01*
X164418875Y-132343435D01*
X164411275Y-132373778D01*
X164400737Y-132403230D01*
X164387362Y-132431508D01*
X164371281Y-132458338D01*
X164352647Y-132483463D01*
X164331640Y-132506640D01*
X164308463Y-132527647D01*
X164283338Y-132546281D01*
X164256508Y-132562362D01*
X164228230Y-132575737D01*
X164198778Y-132586275D01*
X164168435Y-132593875D01*
X164137493Y-132598465D01*
X164106250Y-132600000D01*
X163393750Y-132600000D01*
X163362507Y-132598465D01*
X163331565Y-132593875D01*
X163301222Y-132586275D01*
X163271770Y-132575737D01*
X163243492Y-132562362D01*
X163216662Y-132546281D01*
X163191537Y-132527647D01*
X163168360Y-132506640D01*
X163147353Y-132483463D01*
X163128719Y-132458338D01*
X163112638Y-132431508D01*
X163099263Y-132403230D01*
X163088725Y-132373778D01*
X163081125Y-132343435D01*
X163076535Y-132312493D01*
X163075000Y-132281250D01*
X163075000Y-131643750D01*
X163076535Y-131612507D01*
X163081125Y-131581565D01*
X163088725Y-131551222D01*
X163099263Y-131521770D01*
X163112638Y-131493492D01*
X163128719Y-131466662D01*
X163147353Y-131441537D01*
X163168360Y-131418360D01*
X163191537Y-131397353D01*
X163216662Y-131378719D01*
X163243492Y-131362638D01*
X163271770Y-131349263D01*
X163301222Y-131338725D01*
X163331565Y-131331125D01*
X163362507Y-131326535D01*
X163393750Y-131325000D01*
X164106250Y-131325000D01*
X164137493Y-131326535D01*
X164137493Y-131326535D01*
G37*
D14*
X163750000Y-131962500D03*
G04 #@! TD*
D13*
G04 #@! TO.C,C9*
G36*
X152137493Y-132901535D02*
X152168435Y-132906125D01*
X152198778Y-132913725D01*
X152228230Y-132924263D01*
X152256508Y-132937638D01*
X152283338Y-132953719D01*
X152308463Y-132972353D01*
X152331640Y-132993360D01*
X152352647Y-133016537D01*
X152371281Y-133041662D01*
X152387362Y-133068492D01*
X152400737Y-133096770D01*
X152411275Y-133126222D01*
X152418875Y-133156565D01*
X152423465Y-133187507D01*
X152425000Y-133218750D01*
X152425000Y-133856250D01*
X152423465Y-133887493D01*
X152418875Y-133918435D01*
X152411275Y-133948778D01*
X152400737Y-133978230D01*
X152387362Y-134006508D01*
X152371281Y-134033338D01*
X152352647Y-134058463D01*
X152331640Y-134081640D01*
X152308463Y-134102647D01*
X152283338Y-134121281D01*
X152256508Y-134137362D01*
X152228230Y-134150737D01*
X152198778Y-134161275D01*
X152168435Y-134168875D01*
X152137493Y-134173465D01*
X152106250Y-134175000D01*
X151393750Y-134175000D01*
X151362507Y-134173465D01*
X151331565Y-134168875D01*
X151301222Y-134161275D01*
X151271770Y-134150737D01*
X151243492Y-134137362D01*
X151216662Y-134121281D01*
X151191537Y-134102647D01*
X151168360Y-134081640D01*
X151147353Y-134058463D01*
X151128719Y-134033338D01*
X151112638Y-134006508D01*
X151099263Y-133978230D01*
X151088725Y-133948778D01*
X151081125Y-133918435D01*
X151076535Y-133887493D01*
X151075000Y-133856250D01*
X151075000Y-133218750D01*
X151076535Y-133187507D01*
X151081125Y-133156565D01*
X151088725Y-133126222D01*
X151099263Y-133096770D01*
X151112638Y-133068492D01*
X151128719Y-133041662D01*
X151147353Y-133016537D01*
X151168360Y-132993360D01*
X151191537Y-132972353D01*
X151216662Y-132953719D01*
X151243492Y-132937638D01*
X151271770Y-132924263D01*
X151301222Y-132913725D01*
X151331565Y-132906125D01*
X151362507Y-132901535D01*
X151393750Y-132900000D01*
X152106250Y-132900000D01*
X152137493Y-132901535D01*
X152137493Y-132901535D01*
G37*
D14*
X151750000Y-133537500D03*
D13*
G36*
X152137493Y-131326535D02*
X152168435Y-131331125D01*
X152198778Y-131338725D01*
X152228230Y-131349263D01*
X152256508Y-131362638D01*
X152283338Y-131378719D01*
X152308463Y-131397353D01*
X152331640Y-131418360D01*
X152352647Y-131441537D01*
X152371281Y-131466662D01*
X152387362Y-131493492D01*
X152400737Y-131521770D01*
X152411275Y-131551222D01*
X152418875Y-131581565D01*
X152423465Y-131612507D01*
X152425000Y-131643750D01*
X152425000Y-132281250D01*
X152423465Y-132312493D01*
X152418875Y-132343435D01*
X152411275Y-132373778D01*
X152400737Y-132403230D01*
X152387362Y-132431508D01*
X152371281Y-132458338D01*
X152352647Y-132483463D01*
X152331640Y-132506640D01*
X152308463Y-132527647D01*
X152283338Y-132546281D01*
X152256508Y-132562362D01*
X152228230Y-132575737D01*
X152198778Y-132586275D01*
X152168435Y-132593875D01*
X152137493Y-132598465D01*
X152106250Y-132600000D01*
X151393750Y-132600000D01*
X151362507Y-132598465D01*
X151331565Y-132593875D01*
X151301222Y-132586275D01*
X151271770Y-132575737D01*
X151243492Y-132562362D01*
X151216662Y-132546281D01*
X151191537Y-132527647D01*
X151168360Y-132506640D01*
X151147353Y-132483463D01*
X151128719Y-132458338D01*
X151112638Y-132431508D01*
X151099263Y-132403230D01*
X151088725Y-132373778D01*
X151081125Y-132343435D01*
X151076535Y-132312493D01*
X151075000Y-132281250D01*
X151075000Y-131643750D01*
X151076535Y-131612507D01*
X151081125Y-131581565D01*
X151088725Y-131551222D01*
X151099263Y-131521770D01*
X151112638Y-131493492D01*
X151128719Y-131466662D01*
X151147353Y-131441537D01*
X151168360Y-131418360D01*
X151191537Y-131397353D01*
X151216662Y-131378719D01*
X151243492Y-131362638D01*
X151271770Y-131349263D01*
X151301222Y-131338725D01*
X151331565Y-131331125D01*
X151362507Y-131326535D01*
X151393750Y-131325000D01*
X152106250Y-131325000D01*
X152137493Y-131326535D01*
X152137493Y-131326535D01*
G37*
D14*
X151750000Y-131962500D03*
G04 #@! TD*
D13*
G04 #@! TO.C,C10*
G36*
X136637493Y-132901535D02*
X136668435Y-132906125D01*
X136698778Y-132913725D01*
X136728230Y-132924263D01*
X136756508Y-132937638D01*
X136783338Y-132953719D01*
X136808463Y-132972353D01*
X136831640Y-132993360D01*
X136852647Y-133016537D01*
X136871281Y-133041662D01*
X136887362Y-133068492D01*
X136900737Y-133096770D01*
X136911275Y-133126222D01*
X136918875Y-133156565D01*
X136923465Y-133187507D01*
X136925000Y-133218750D01*
X136925000Y-133856250D01*
X136923465Y-133887493D01*
X136918875Y-133918435D01*
X136911275Y-133948778D01*
X136900737Y-133978230D01*
X136887362Y-134006508D01*
X136871281Y-134033338D01*
X136852647Y-134058463D01*
X136831640Y-134081640D01*
X136808463Y-134102647D01*
X136783338Y-134121281D01*
X136756508Y-134137362D01*
X136728230Y-134150737D01*
X136698778Y-134161275D01*
X136668435Y-134168875D01*
X136637493Y-134173465D01*
X136606250Y-134175000D01*
X135893750Y-134175000D01*
X135862507Y-134173465D01*
X135831565Y-134168875D01*
X135801222Y-134161275D01*
X135771770Y-134150737D01*
X135743492Y-134137362D01*
X135716662Y-134121281D01*
X135691537Y-134102647D01*
X135668360Y-134081640D01*
X135647353Y-134058463D01*
X135628719Y-134033338D01*
X135612638Y-134006508D01*
X135599263Y-133978230D01*
X135588725Y-133948778D01*
X135581125Y-133918435D01*
X135576535Y-133887493D01*
X135575000Y-133856250D01*
X135575000Y-133218750D01*
X135576535Y-133187507D01*
X135581125Y-133156565D01*
X135588725Y-133126222D01*
X135599263Y-133096770D01*
X135612638Y-133068492D01*
X135628719Y-133041662D01*
X135647353Y-133016537D01*
X135668360Y-132993360D01*
X135691537Y-132972353D01*
X135716662Y-132953719D01*
X135743492Y-132937638D01*
X135771770Y-132924263D01*
X135801222Y-132913725D01*
X135831565Y-132906125D01*
X135862507Y-132901535D01*
X135893750Y-132900000D01*
X136606250Y-132900000D01*
X136637493Y-132901535D01*
X136637493Y-132901535D01*
G37*
D14*
X136250000Y-133537500D03*
D13*
G36*
X136637493Y-131326535D02*
X136668435Y-131331125D01*
X136698778Y-131338725D01*
X136728230Y-131349263D01*
X136756508Y-131362638D01*
X136783338Y-131378719D01*
X136808463Y-131397353D01*
X136831640Y-131418360D01*
X136852647Y-131441537D01*
X136871281Y-131466662D01*
X136887362Y-131493492D01*
X136900737Y-131521770D01*
X136911275Y-131551222D01*
X136918875Y-131581565D01*
X136923465Y-131612507D01*
X136925000Y-131643750D01*
X136925000Y-132281250D01*
X136923465Y-132312493D01*
X136918875Y-132343435D01*
X136911275Y-132373778D01*
X136900737Y-132403230D01*
X136887362Y-132431508D01*
X136871281Y-132458338D01*
X136852647Y-132483463D01*
X136831640Y-132506640D01*
X136808463Y-132527647D01*
X136783338Y-132546281D01*
X136756508Y-132562362D01*
X136728230Y-132575737D01*
X136698778Y-132586275D01*
X136668435Y-132593875D01*
X136637493Y-132598465D01*
X136606250Y-132600000D01*
X135893750Y-132600000D01*
X135862507Y-132598465D01*
X135831565Y-132593875D01*
X135801222Y-132586275D01*
X135771770Y-132575737D01*
X135743492Y-132562362D01*
X135716662Y-132546281D01*
X135691537Y-132527647D01*
X135668360Y-132506640D01*
X135647353Y-132483463D01*
X135628719Y-132458338D01*
X135612638Y-132431508D01*
X135599263Y-132403230D01*
X135588725Y-132373778D01*
X135581125Y-132343435D01*
X135576535Y-132312493D01*
X135575000Y-132281250D01*
X135575000Y-131643750D01*
X135576535Y-131612507D01*
X135581125Y-131581565D01*
X135588725Y-131551222D01*
X135599263Y-131521770D01*
X135612638Y-131493492D01*
X135628719Y-131466662D01*
X135647353Y-131441537D01*
X135668360Y-131418360D01*
X135691537Y-131397353D01*
X135716662Y-131378719D01*
X135743492Y-131362638D01*
X135771770Y-131349263D01*
X135801222Y-131338725D01*
X135831565Y-131331125D01*
X135862507Y-131326535D01*
X135893750Y-131325000D01*
X136606250Y-131325000D01*
X136637493Y-131326535D01*
X136637493Y-131326535D01*
G37*
D14*
X136250000Y-131962500D03*
G04 #@! TD*
D13*
G04 #@! TO.C,C11*
G36*
X125137493Y-132901535D02*
X125168435Y-132906125D01*
X125198778Y-132913725D01*
X125228230Y-132924263D01*
X125256508Y-132937638D01*
X125283338Y-132953719D01*
X125308463Y-132972353D01*
X125331640Y-132993360D01*
X125352647Y-133016537D01*
X125371281Y-133041662D01*
X125387362Y-133068492D01*
X125400737Y-133096770D01*
X125411275Y-133126222D01*
X125418875Y-133156565D01*
X125423465Y-133187507D01*
X125425000Y-133218750D01*
X125425000Y-133856250D01*
X125423465Y-133887493D01*
X125418875Y-133918435D01*
X125411275Y-133948778D01*
X125400737Y-133978230D01*
X125387362Y-134006508D01*
X125371281Y-134033338D01*
X125352647Y-134058463D01*
X125331640Y-134081640D01*
X125308463Y-134102647D01*
X125283338Y-134121281D01*
X125256508Y-134137362D01*
X125228230Y-134150737D01*
X125198778Y-134161275D01*
X125168435Y-134168875D01*
X125137493Y-134173465D01*
X125106250Y-134175000D01*
X124393750Y-134175000D01*
X124362507Y-134173465D01*
X124331565Y-134168875D01*
X124301222Y-134161275D01*
X124271770Y-134150737D01*
X124243492Y-134137362D01*
X124216662Y-134121281D01*
X124191537Y-134102647D01*
X124168360Y-134081640D01*
X124147353Y-134058463D01*
X124128719Y-134033338D01*
X124112638Y-134006508D01*
X124099263Y-133978230D01*
X124088725Y-133948778D01*
X124081125Y-133918435D01*
X124076535Y-133887493D01*
X124075000Y-133856250D01*
X124075000Y-133218750D01*
X124076535Y-133187507D01*
X124081125Y-133156565D01*
X124088725Y-133126222D01*
X124099263Y-133096770D01*
X124112638Y-133068492D01*
X124128719Y-133041662D01*
X124147353Y-133016537D01*
X124168360Y-132993360D01*
X124191537Y-132972353D01*
X124216662Y-132953719D01*
X124243492Y-132937638D01*
X124271770Y-132924263D01*
X124301222Y-132913725D01*
X124331565Y-132906125D01*
X124362507Y-132901535D01*
X124393750Y-132900000D01*
X125106250Y-132900000D01*
X125137493Y-132901535D01*
X125137493Y-132901535D01*
G37*
D14*
X124750000Y-133537500D03*
D13*
G36*
X125137493Y-131326535D02*
X125168435Y-131331125D01*
X125198778Y-131338725D01*
X125228230Y-131349263D01*
X125256508Y-131362638D01*
X125283338Y-131378719D01*
X125308463Y-131397353D01*
X125331640Y-131418360D01*
X125352647Y-131441537D01*
X125371281Y-131466662D01*
X125387362Y-131493492D01*
X125400737Y-131521770D01*
X125411275Y-131551222D01*
X125418875Y-131581565D01*
X125423465Y-131612507D01*
X125425000Y-131643750D01*
X125425000Y-132281250D01*
X125423465Y-132312493D01*
X125418875Y-132343435D01*
X125411275Y-132373778D01*
X125400737Y-132403230D01*
X125387362Y-132431508D01*
X125371281Y-132458338D01*
X125352647Y-132483463D01*
X125331640Y-132506640D01*
X125308463Y-132527647D01*
X125283338Y-132546281D01*
X125256508Y-132562362D01*
X125228230Y-132575737D01*
X125198778Y-132586275D01*
X125168435Y-132593875D01*
X125137493Y-132598465D01*
X125106250Y-132600000D01*
X124393750Y-132600000D01*
X124362507Y-132598465D01*
X124331565Y-132593875D01*
X124301222Y-132586275D01*
X124271770Y-132575737D01*
X124243492Y-132562362D01*
X124216662Y-132546281D01*
X124191537Y-132527647D01*
X124168360Y-132506640D01*
X124147353Y-132483463D01*
X124128719Y-132458338D01*
X124112638Y-132431508D01*
X124099263Y-132403230D01*
X124088725Y-132373778D01*
X124081125Y-132343435D01*
X124076535Y-132312493D01*
X124075000Y-132281250D01*
X124075000Y-131643750D01*
X124076535Y-131612507D01*
X124081125Y-131581565D01*
X124088725Y-131551222D01*
X124099263Y-131521770D01*
X124112638Y-131493492D01*
X124128719Y-131466662D01*
X124147353Y-131441537D01*
X124168360Y-131418360D01*
X124191537Y-131397353D01*
X124216662Y-131378719D01*
X124243492Y-131362638D01*
X124271770Y-131349263D01*
X124301222Y-131338725D01*
X124331565Y-131331125D01*
X124362507Y-131326535D01*
X124393750Y-131325000D01*
X125106250Y-131325000D01*
X125137493Y-131326535D01*
X125137493Y-131326535D01*
G37*
D14*
X124750000Y-131962500D03*
G04 #@! TD*
D13*
G04 #@! TO.C,C12*
G36*
X110137493Y-132901535D02*
X110168435Y-132906125D01*
X110198778Y-132913725D01*
X110228230Y-132924263D01*
X110256508Y-132937638D01*
X110283338Y-132953719D01*
X110308463Y-132972353D01*
X110331640Y-132993360D01*
X110352647Y-133016537D01*
X110371281Y-133041662D01*
X110387362Y-133068492D01*
X110400737Y-133096770D01*
X110411275Y-133126222D01*
X110418875Y-133156565D01*
X110423465Y-133187507D01*
X110425000Y-133218750D01*
X110425000Y-133856250D01*
X110423465Y-133887493D01*
X110418875Y-133918435D01*
X110411275Y-133948778D01*
X110400737Y-133978230D01*
X110387362Y-134006508D01*
X110371281Y-134033338D01*
X110352647Y-134058463D01*
X110331640Y-134081640D01*
X110308463Y-134102647D01*
X110283338Y-134121281D01*
X110256508Y-134137362D01*
X110228230Y-134150737D01*
X110198778Y-134161275D01*
X110168435Y-134168875D01*
X110137493Y-134173465D01*
X110106250Y-134175000D01*
X109393750Y-134175000D01*
X109362507Y-134173465D01*
X109331565Y-134168875D01*
X109301222Y-134161275D01*
X109271770Y-134150737D01*
X109243492Y-134137362D01*
X109216662Y-134121281D01*
X109191537Y-134102647D01*
X109168360Y-134081640D01*
X109147353Y-134058463D01*
X109128719Y-134033338D01*
X109112638Y-134006508D01*
X109099263Y-133978230D01*
X109088725Y-133948778D01*
X109081125Y-133918435D01*
X109076535Y-133887493D01*
X109075000Y-133856250D01*
X109075000Y-133218750D01*
X109076535Y-133187507D01*
X109081125Y-133156565D01*
X109088725Y-133126222D01*
X109099263Y-133096770D01*
X109112638Y-133068492D01*
X109128719Y-133041662D01*
X109147353Y-133016537D01*
X109168360Y-132993360D01*
X109191537Y-132972353D01*
X109216662Y-132953719D01*
X109243492Y-132937638D01*
X109271770Y-132924263D01*
X109301222Y-132913725D01*
X109331565Y-132906125D01*
X109362507Y-132901535D01*
X109393750Y-132900000D01*
X110106250Y-132900000D01*
X110137493Y-132901535D01*
X110137493Y-132901535D01*
G37*
D14*
X109750000Y-133537500D03*
D13*
G36*
X110137493Y-131326535D02*
X110168435Y-131331125D01*
X110198778Y-131338725D01*
X110228230Y-131349263D01*
X110256508Y-131362638D01*
X110283338Y-131378719D01*
X110308463Y-131397353D01*
X110331640Y-131418360D01*
X110352647Y-131441537D01*
X110371281Y-131466662D01*
X110387362Y-131493492D01*
X110400737Y-131521770D01*
X110411275Y-131551222D01*
X110418875Y-131581565D01*
X110423465Y-131612507D01*
X110425000Y-131643750D01*
X110425000Y-132281250D01*
X110423465Y-132312493D01*
X110418875Y-132343435D01*
X110411275Y-132373778D01*
X110400737Y-132403230D01*
X110387362Y-132431508D01*
X110371281Y-132458338D01*
X110352647Y-132483463D01*
X110331640Y-132506640D01*
X110308463Y-132527647D01*
X110283338Y-132546281D01*
X110256508Y-132562362D01*
X110228230Y-132575737D01*
X110198778Y-132586275D01*
X110168435Y-132593875D01*
X110137493Y-132598465D01*
X110106250Y-132600000D01*
X109393750Y-132600000D01*
X109362507Y-132598465D01*
X109331565Y-132593875D01*
X109301222Y-132586275D01*
X109271770Y-132575737D01*
X109243492Y-132562362D01*
X109216662Y-132546281D01*
X109191537Y-132527647D01*
X109168360Y-132506640D01*
X109147353Y-132483463D01*
X109128719Y-132458338D01*
X109112638Y-132431508D01*
X109099263Y-132403230D01*
X109088725Y-132373778D01*
X109081125Y-132343435D01*
X109076535Y-132312493D01*
X109075000Y-132281250D01*
X109075000Y-131643750D01*
X109076535Y-131612507D01*
X109081125Y-131581565D01*
X109088725Y-131551222D01*
X109099263Y-131521770D01*
X109112638Y-131493492D01*
X109128719Y-131466662D01*
X109147353Y-131441537D01*
X109168360Y-131418360D01*
X109191537Y-131397353D01*
X109216662Y-131378719D01*
X109243492Y-131362638D01*
X109271770Y-131349263D01*
X109301222Y-131338725D01*
X109331565Y-131331125D01*
X109362507Y-131326535D01*
X109393750Y-131325000D01*
X110106250Y-131325000D01*
X110137493Y-131326535D01*
X110137493Y-131326535D01*
G37*
D14*
X109750000Y-131962500D03*
G04 #@! TD*
D15*
G04 #@! TO.C,J1*
X105500000Y-69500000D03*
X113000000Y-69500000D03*
G04 #@! TD*
D16*
G04 #@! TO.C,J5*
X152500000Y-145500000D03*
D17*
X155000000Y-145500000D03*
X157500000Y-145500000D03*
X160000000Y-145500000D03*
X162500000Y-145500000D03*
X165000000Y-145500000D03*
X167500000Y-145500000D03*
X170000000Y-145500000D03*
G04 #@! TD*
D16*
G04 #@! TO.C,J6*
X180000000Y-145500000D03*
D17*
X182500000Y-145500000D03*
X185000000Y-145500000D03*
X187500000Y-145500000D03*
G04 #@! TD*
D16*
G04 #@! TO.C,J7*
X132500000Y-145500000D03*
D17*
X135000000Y-145500000D03*
X137500000Y-145500000D03*
X140000000Y-145500000D03*
X142500000Y-145500000D03*
G04 #@! TD*
D18*
G04 #@! TO.C,J8*
X114975000Y-146922000D03*
D19*
X116475000Y-146922000D03*
X117975000Y-146922000D03*
X119475000Y-146922000D03*
X120975000Y-146922000D03*
X122475000Y-146922000D03*
G04 #@! TD*
D20*
G04 #@! TO.C,MH1*
X104000000Y-146000000D03*
G04 #@! TD*
G04 #@! TO.C,MH2*
X104000000Y-54000000D03*
G04 #@! TD*
G04 #@! TO.C,MH3*
X196000000Y-146000000D03*
G04 #@! TD*
G04 #@! TO.C,MH4*
X196000000Y-54000000D03*
G04 #@! TD*
D21*
G04 #@! TO.C,Q1*
X128500000Y-74500000D03*
D22*
X131040000Y-74500000D03*
X133580000Y-74500000D03*
G04 #@! TD*
G04 #@! TO.C,Q2*
X133580000Y-95000000D03*
X131040000Y-95000000D03*
D21*
X128500000Y-95000000D03*
G04 #@! TD*
G04 #@! TO.C,Q3*
X155500000Y-74500000D03*
D22*
X158040000Y-74500000D03*
X160580000Y-74500000D03*
G04 #@! TD*
G04 #@! TO.C,Q4*
X160580000Y-95000000D03*
X158040000Y-95000000D03*
D21*
X155500000Y-95000000D03*
G04 #@! TD*
D22*
G04 #@! TO.C,Q5*
X187580000Y-74500000D03*
X185040000Y-74500000D03*
D21*
X182500000Y-74500000D03*
G04 #@! TD*
G04 #@! TO.C,Q6*
X182500000Y-95000000D03*
D22*
X185040000Y-95000000D03*
X187580000Y-95000000D03*
G04 #@! TD*
D23*
G04 #@! TO.C,U1*
X166730000Y-131750000D03*
X168000000Y-131750000D03*
X169270000Y-131750000D03*
X166730000Y-138250000D03*
X169270000Y-138250000D03*
G04 #@! TD*
G04 #@! TO.C,U2*
X175770000Y-138250000D03*
X173230000Y-138250000D03*
X175770000Y-131750000D03*
X174500000Y-131750000D03*
X173230000Y-131750000D03*
G04 #@! TD*
G04 #@! TO.C,U3*
X139230000Y-131750000D03*
X140500000Y-131750000D03*
X141770000Y-131750000D03*
X139230000Y-138250000D03*
X141770000Y-138250000D03*
G04 #@! TD*
G04 #@! TO.C,U4*
X148770000Y-138250000D03*
X146230000Y-138250000D03*
X148770000Y-131750000D03*
X147500000Y-131750000D03*
X146230000Y-131750000D03*
G04 #@! TD*
G04 #@! TO.C,U5*
X112730000Y-131750000D03*
X114000000Y-131750000D03*
X115270000Y-131750000D03*
X112730000Y-138250000D03*
X115270000Y-138250000D03*
G04 #@! TD*
G04 #@! TO.C,U6*
X121770000Y-138250000D03*
X119230000Y-138250000D03*
X121770000Y-131750000D03*
X120500000Y-131750000D03*
X119230000Y-131750000D03*
G04 #@! TD*
D24*
G04 #@! TO.C,U7*
X167500000Y-128000000D03*
D25*
X175120000Y-120380000D03*
X170040000Y-128000000D03*
X172580000Y-120380000D03*
X172580000Y-128000000D03*
X170040000Y-120380000D03*
X175120000Y-128000000D03*
X167500000Y-120380000D03*
G04 #@! TD*
D24*
G04 #@! TO.C,U8*
X140500000Y-128000000D03*
D25*
X148120000Y-120380000D03*
X143040000Y-128000000D03*
X145580000Y-120380000D03*
X145580000Y-128000000D03*
X143040000Y-120380000D03*
X148120000Y-128000000D03*
X140500000Y-120380000D03*
G04 #@! TD*
G04 #@! TO.C,U9*
X113500000Y-120380000D03*
X121120000Y-128000000D03*
X116040000Y-120380000D03*
X118580000Y-128000000D03*
X118580000Y-120380000D03*
X116040000Y-128000000D03*
X121120000Y-120380000D03*
D24*
X113500000Y-128000000D03*
G04 #@! TD*
D26*
G04 #@! TO.C,U10*
X108500000Y-100500000D03*
D27*
X108500000Y-103040000D03*
X108500000Y-105580000D03*
G04 #@! TD*
D28*
G04 #@! TO.C,U11*
X179750000Y-104500000D03*
X189750000Y-104500000D03*
D29*
X182840000Y-125900000D03*
D30*
X186660000Y-125900000D03*
X184750000Y-125900000D03*
D31*
X183700000Y-103870000D03*
D32*
X183700000Y-103870000D02*
X183700000Y-103870000D01*
D31*
X183700000Y-105130000D03*
D32*
X183700000Y-105130000D02*
X183700000Y-105130000D01*
D31*
X182950000Y-106160000D03*
X182950000Y-102840000D03*
X175800000Y-103870000D03*
X175800000Y-105130000D03*
X176550000Y-106160000D03*
X176550000Y-102840000D03*
X180420000Y-106550000D03*
X179080000Y-106550000D03*
X181750000Y-106550000D03*
X177750000Y-106550000D03*
X180420000Y-102450000D03*
X179080000Y-102450000D03*
X177750000Y-102450000D03*
X181750000Y-102450000D03*
X186550000Y-106160000D03*
X186550000Y-102840000D03*
X185800000Y-105130000D03*
D32*
X185800000Y-105130000D02*
X185800000Y-105130000D01*
D31*
X185800000Y-103870000D03*
D32*
X185800000Y-103870000D02*
X185800000Y-103870000D01*
D31*
X192950000Y-106160000D03*
X192950000Y-102840000D03*
X193700000Y-103870000D03*
X191750000Y-106550000D03*
X190420000Y-106550000D03*
X189080000Y-106550000D03*
X187750000Y-106550000D03*
X191750000Y-102450000D03*
X190420000Y-102450000D03*
X189080000Y-102450000D03*
X187750000Y-102450000D03*
X193700000Y-105130000D03*
G04 #@! TD*
G04 #@! TO.C,U12*
X166860000Y-105130000D03*
X160910000Y-102450000D03*
X162240000Y-102450000D03*
X163580000Y-102450000D03*
X164910000Y-102450000D03*
X160910000Y-106550000D03*
X162240000Y-106550000D03*
X163580000Y-106550000D03*
X164910000Y-106550000D03*
X166860000Y-103870000D03*
X166110000Y-102840000D03*
X166110000Y-106160000D03*
X158960000Y-103870000D03*
D32*
X158960000Y-103870000D02*
X158960000Y-103870000D01*
D31*
X158960000Y-105130000D03*
D32*
X158960000Y-105130000D02*
X158960000Y-105130000D01*
D31*
X159710000Y-102840000D03*
X159710000Y-106160000D03*
X154910000Y-102450000D03*
X150910000Y-102450000D03*
X152240000Y-102450000D03*
X153580000Y-102450000D03*
X150910000Y-106550000D03*
X154910000Y-106550000D03*
X152240000Y-106550000D03*
X153580000Y-106550000D03*
X149710000Y-102840000D03*
X149710000Y-106160000D03*
X148960000Y-105130000D03*
X148960000Y-103870000D03*
X156110000Y-102840000D03*
X156110000Y-106160000D03*
X156860000Y-105130000D03*
D32*
X156860000Y-105130000D02*
X156860000Y-105130000D01*
D31*
X156860000Y-103870000D03*
D32*
X156860000Y-103870000D02*
X156860000Y-103870000D01*
D30*
X157910000Y-125900000D03*
X159820000Y-125900000D03*
D29*
X156000000Y-125900000D03*
D28*
X162910000Y-104500000D03*
X152910000Y-104500000D03*
G04 #@! TD*
D31*
G04 #@! TO.C,U13*
X139950000Y-105130000D03*
X134000000Y-102450000D03*
X135330000Y-102450000D03*
X136670000Y-102450000D03*
X138000000Y-102450000D03*
X134000000Y-106550000D03*
X135330000Y-106550000D03*
X136670000Y-106550000D03*
X138000000Y-106550000D03*
X139950000Y-103870000D03*
X139200000Y-102840000D03*
X139200000Y-106160000D03*
X132050000Y-103870000D03*
D32*
X132050000Y-103870000D02*
X132050000Y-103870000D01*
D31*
X132050000Y-105130000D03*
D32*
X132050000Y-105130000D02*
X132050000Y-105130000D01*
D31*
X132800000Y-102840000D03*
X132800000Y-106160000D03*
X128000000Y-102450000D03*
X124000000Y-102450000D03*
X125330000Y-102450000D03*
X126670000Y-102450000D03*
X124000000Y-106550000D03*
X128000000Y-106550000D03*
X125330000Y-106550000D03*
X126670000Y-106550000D03*
X122800000Y-102840000D03*
X122800000Y-106160000D03*
X122050000Y-105130000D03*
X122050000Y-103870000D03*
X129200000Y-102840000D03*
X129200000Y-106160000D03*
X129950000Y-105130000D03*
D32*
X129950000Y-105130000D02*
X129950000Y-105130000D01*
D31*
X129950000Y-103870000D03*
D32*
X129950000Y-103870000D02*
X129950000Y-103870000D01*
D30*
X131000000Y-125900000D03*
X132910000Y-125900000D03*
D29*
X129090000Y-125900000D03*
D28*
X136000000Y-104500000D03*
X126000000Y-104500000D03*
G04 #@! TD*
D11*
G04 #@! TO.C,U14*
X149000000Y-68000000D03*
D10*
X166800000Y-68000000D03*
G04 #@! TD*
G04 #@! TO.C,U15*
X193800000Y-68000000D03*
D11*
X176000000Y-68000000D03*
G04 #@! TD*
G04 #@! TO.C,U16*
X122000000Y-68000000D03*
D10*
X139800000Y-68000000D03*
G04 #@! TD*
D11*
G04 #@! TO.C,U18*
X149000000Y-88500000D03*
D10*
X166800000Y-88500000D03*
G04 #@! TD*
G04 #@! TO.C,U19*
X193800000Y-88500000D03*
D11*
X176000000Y-88500000D03*
G04 #@! TD*
D13*
G04 #@! TO.C,C13*
G36*
X179137493Y-125576535D02*
X179168435Y-125581125D01*
X179198778Y-125588725D01*
X179228230Y-125599263D01*
X179256508Y-125612638D01*
X179283338Y-125628719D01*
X179308463Y-125647353D01*
X179331640Y-125668360D01*
X179352647Y-125691537D01*
X179371281Y-125716662D01*
X179387362Y-125743492D01*
X179400737Y-125771770D01*
X179411275Y-125801222D01*
X179418875Y-125831565D01*
X179423465Y-125862507D01*
X179425000Y-125893750D01*
X179425000Y-126531250D01*
X179423465Y-126562493D01*
X179418875Y-126593435D01*
X179411275Y-126623778D01*
X179400737Y-126653230D01*
X179387362Y-126681508D01*
X179371281Y-126708338D01*
X179352647Y-126733463D01*
X179331640Y-126756640D01*
X179308463Y-126777647D01*
X179283338Y-126796281D01*
X179256508Y-126812362D01*
X179228230Y-126825737D01*
X179198778Y-126836275D01*
X179168435Y-126843875D01*
X179137493Y-126848465D01*
X179106250Y-126850000D01*
X178393750Y-126850000D01*
X178362507Y-126848465D01*
X178331565Y-126843875D01*
X178301222Y-126836275D01*
X178271770Y-126825737D01*
X178243492Y-126812362D01*
X178216662Y-126796281D01*
X178191537Y-126777647D01*
X178168360Y-126756640D01*
X178147353Y-126733463D01*
X178128719Y-126708338D01*
X178112638Y-126681508D01*
X178099263Y-126653230D01*
X178088725Y-126623778D01*
X178081125Y-126593435D01*
X178076535Y-126562493D01*
X178075000Y-126531250D01*
X178075000Y-125893750D01*
X178076535Y-125862507D01*
X178081125Y-125831565D01*
X178088725Y-125801222D01*
X178099263Y-125771770D01*
X178112638Y-125743492D01*
X178128719Y-125716662D01*
X178147353Y-125691537D01*
X178168360Y-125668360D01*
X178191537Y-125647353D01*
X178216662Y-125628719D01*
X178243492Y-125612638D01*
X178271770Y-125599263D01*
X178301222Y-125588725D01*
X178331565Y-125581125D01*
X178362507Y-125576535D01*
X178393750Y-125575000D01*
X179106250Y-125575000D01*
X179137493Y-125576535D01*
X179137493Y-125576535D01*
G37*
D14*
X178750000Y-126212500D03*
D13*
G36*
X179137493Y-127151535D02*
X179168435Y-127156125D01*
X179198778Y-127163725D01*
X179228230Y-127174263D01*
X179256508Y-127187638D01*
X179283338Y-127203719D01*
X179308463Y-127222353D01*
X179331640Y-127243360D01*
X179352647Y-127266537D01*
X179371281Y-127291662D01*
X179387362Y-127318492D01*
X179400737Y-127346770D01*
X179411275Y-127376222D01*
X179418875Y-127406565D01*
X179423465Y-127437507D01*
X179425000Y-127468750D01*
X179425000Y-128106250D01*
X179423465Y-128137493D01*
X179418875Y-128168435D01*
X179411275Y-128198778D01*
X179400737Y-128228230D01*
X179387362Y-128256508D01*
X179371281Y-128283338D01*
X179352647Y-128308463D01*
X179331640Y-128331640D01*
X179308463Y-128352647D01*
X179283338Y-128371281D01*
X179256508Y-128387362D01*
X179228230Y-128400737D01*
X179198778Y-128411275D01*
X179168435Y-128418875D01*
X179137493Y-128423465D01*
X179106250Y-128425000D01*
X178393750Y-128425000D01*
X178362507Y-128423465D01*
X178331565Y-128418875D01*
X178301222Y-128411275D01*
X178271770Y-128400737D01*
X178243492Y-128387362D01*
X178216662Y-128371281D01*
X178191537Y-128352647D01*
X178168360Y-128331640D01*
X178147353Y-128308463D01*
X178128719Y-128283338D01*
X178112638Y-128256508D01*
X178099263Y-128228230D01*
X178088725Y-128198778D01*
X178081125Y-128168435D01*
X178076535Y-128137493D01*
X178075000Y-128106250D01*
X178075000Y-127468750D01*
X178076535Y-127437507D01*
X178081125Y-127406565D01*
X178088725Y-127376222D01*
X178099263Y-127346770D01*
X178112638Y-127318492D01*
X178128719Y-127291662D01*
X178147353Y-127266537D01*
X178168360Y-127243360D01*
X178191537Y-127222353D01*
X178216662Y-127203719D01*
X178243492Y-127187638D01*
X178271770Y-127174263D01*
X178301222Y-127163725D01*
X178331565Y-127156125D01*
X178362507Y-127151535D01*
X178393750Y-127150000D01*
X179106250Y-127150000D01*
X179137493Y-127151535D01*
X179137493Y-127151535D01*
G37*
D14*
X178750000Y-127787500D03*
G04 #@! TD*
D13*
G04 #@! TO.C,C14*
G36*
X152387493Y-127151535D02*
X152418435Y-127156125D01*
X152448778Y-127163725D01*
X152478230Y-127174263D01*
X152506508Y-127187638D01*
X152533338Y-127203719D01*
X152558463Y-127222353D01*
X152581640Y-127243360D01*
X152602647Y-127266537D01*
X152621281Y-127291662D01*
X152637362Y-127318492D01*
X152650737Y-127346770D01*
X152661275Y-127376222D01*
X152668875Y-127406565D01*
X152673465Y-127437507D01*
X152675000Y-127468750D01*
X152675000Y-128106250D01*
X152673465Y-128137493D01*
X152668875Y-128168435D01*
X152661275Y-128198778D01*
X152650737Y-128228230D01*
X152637362Y-128256508D01*
X152621281Y-128283338D01*
X152602647Y-128308463D01*
X152581640Y-128331640D01*
X152558463Y-128352647D01*
X152533338Y-128371281D01*
X152506508Y-128387362D01*
X152478230Y-128400737D01*
X152448778Y-128411275D01*
X152418435Y-128418875D01*
X152387493Y-128423465D01*
X152356250Y-128425000D01*
X151643750Y-128425000D01*
X151612507Y-128423465D01*
X151581565Y-128418875D01*
X151551222Y-128411275D01*
X151521770Y-128400737D01*
X151493492Y-128387362D01*
X151466662Y-128371281D01*
X151441537Y-128352647D01*
X151418360Y-128331640D01*
X151397353Y-128308463D01*
X151378719Y-128283338D01*
X151362638Y-128256508D01*
X151349263Y-128228230D01*
X151338725Y-128198778D01*
X151331125Y-128168435D01*
X151326535Y-128137493D01*
X151325000Y-128106250D01*
X151325000Y-127468750D01*
X151326535Y-127437507D01*
X151331125Y-127406565D01*
X151338725Y-127376222D01*
X151349263Y-127346770D01*
X151362638Y-127318492D01*
X151378719Y-127291662D01*
X151397353Y-127266537D01*
X151418360Y-127243360D01*
X151441537Y-127222353D01*
X151466662Y-127203719D01*
X151493492Y-127187638D01*
X151521770Y-127174263D01*
X151551222Y-127163725D01*
X151581565Y-127156125D01*
X151612507Y-127151535D01*
X151643750Y-127150000D01*
X152356250Y-127150000D01*
X152387493Y-127151535D01*
X152387493Y-127151535D01*
G37*
D14*
X152000000Y-127787500D03*
D13*
G36*
X152387493Y-125576535D02*
X152418435Y-125581125D01*
X152448778Y-125588725D01*
X152478230Y-125599263D01*
X152506508Y-125612638D01*
X152533338Y-125628719D01*
X152558463Y-125647353D01*
X152581640Y-125668360D01*
X152602647Y-125691537D01*
X152621281Y-125716662D01*
X152637362Y-125743492D01*
X152650737Y-125771770D01*
X152661275Y-125801222D01*
X152668875Y-125831565D01*
X152673465Y-125862507D01*
X152675000Y-125893750D01*
X152675000Y-126531250D01*
X152673465Y-126562493D01*
X152668875Y-126593435D01*
X152661275Y-126623778D01*
X152650737Y-126653230D01*
X152637362Y-126681508D01*
X152621281Y-126708338D01*
X152602647Y-126733463D01*
X152581640Y-126756640D01*
X152558463Y-126777647D01*
X152533338Y-126796281D01*
X152506508Y-126812362D01*
X152478230Y-126825737D01*
X152448778Y-126836275D01*
X152418435Y-126843875D01*
X152387493Y-126848465D01*
X152356250Y-126850000D01*
X151643750Y-126850000D01*
X151612507Y-126848465D01*
X151581565Y-126843875D01*
X151551222Y-126836275D01*
X151521770Y-126825737D01*
X151493492Y-126812362D01*
X151466662Y-126796281D01*
X151441537Y-126777647D01*
X151418360Y-126756640D01*
X151397353Y-126733463D01*
X151378719Y-126708338D01*
X151362638Y-126681508D01*
X151349263Y-126653230D01*
X151338725Y-126623778D01*
X151331125Y-126593435D01*
X151326535Y-126562493D01*
X151325000Y-126531250D01*
X151325000Y-125893750D01*
X151326535Y-125862507D01*
X151331125Y-125831565D01*
X151338725Y-125801222D01*
X151349263Y-125771770D01*
X151362638Y-125743492D01*
X151378719Y-125716662D01*
X151397353Y-125691537D01*
X151418360Y-125668360D01*
X151441537Y-125647353D01*
X151466662Y-125628719D01*
X151493492Y-125612638D01*
X151521770Y-125599263D01*
X151551222Y-125588725D01*
X151581565Y-125581125D01*
X151612507Y-125576535D01*
X151643750Y-125575000D01*
X152356250Y-125575000D01*
X152387493Y-125576535D01*
X152387493Y-125576535D01*
G37*
D14*
X152000000Y-126212500D03*
G04 #@! TD*
D13*
G04 #@! TO.C,C15*
G36*
X125137493Y-125326535D02*
X125168435Y-125331125D01*
X125198778Y-125338725D01*
X125228230Y-125349263D01*
X125256508Y-125362638D01*
X125283338Y-125378719D01*
X125308463Y-125397353D01*
X125331640Y-125418360D01*
X125352647Y-125441537D01*
X125371281Y-125466662D01*
X125387362Y-125493492D01*
X125400737Y-125521770D01*
X125411275Y-125551222D01*
X125418875Y-125581565D01*
X125423465Y-125612507D01*
X125425000Y-125643750D01*
X125425000Y-126281250D01*
X125423465Y-126312493D01*
X125418875Y-126343435D01*
X125411275Y-126373778D01*
X125400737Y-126403230D01*
X125387362Y-126431508D01*
X125371281Y-126458338D01*
X125352647Y-126483463D01*
X125331640Y-126506640D01*
X125308463Y-126527647D01*
X125283338Y-126546281D01*
X125256508Y-126562362D01*
X125228230Y-126575737D01*
X125198778Y-126586275D01*
X125168435Y-126593875D01*
X125137493Y-126598465D01*
X125106250Y-126600000D01*
X124393750Y-126600000D01*
X124362507Y-126598465D01*
X124331565Y-126593875D01*
X124301222Y-126586275D01*
X124271770Y-126575737D01*
X124243492Y-126562362D01*
X124216662Y-126546281D01*
X124191537Y-126527647D01*
X124168360Y-126506640D01*
X124147353Y-126483463D01*
X124128719Y-126458338D01*
X124112638Y-126431508D01*
X124099263Y-126403230D01*
X124088725Y-126373778D01*
X124081125Y-126343435D01*
X124076535Y-126312493D01*
X124075000Y-126281250D01*
X124075000Y-125643750D01*
X124076535Y-125612507D01*
X124081125Y-125581565D01*
X124088725Y-125551222D01*
X124099263Y-125521770D01*
X124112638Y-125493492D01*
X124128719Y-125466662D01*
X124147353Y-125441537D01*
X124168360Y-125418360D01*
X124191537Y-125397353D01*
X124216662Y-125378719D01*
X124243492Y-125362638D01*
X124271770Y-125349263D01*
X124301222Y-125338725D01*
X124331565Y-125331125D01*
X124362507Y-125326535D01*
X124393750Y-125325000D01*
X125106250Y-125325000D01*
X125137493Y-125326535D01*
X125137493Y-125326535D01*
G37*
D14*
X124750000Y-125962500D03*
D13*
G36*
X125137493Y-126901535D02*
X125168435Y-126906125D01*
X125198778Y-126913725D01*
X125228230Y-126924263D01*
X125256508Y-126937638D01*
X125283338Y-126953719D01*
X125308463Y-126972353D01*
X125331640Y-126993360D01*
X125352647Y-127016537D01*
X125371281Y-127041662D01*
X125387362Y-127068492D01*
X125400737Y-127096770D01*
X125411275Y-127126222D01*
X125418875Y-127156565D01*
X125423465Y-127187507D01*
X125425000Y-127218750D01*
X125425000Y-127856250D01*
X125423465Y-127887493D01*
X125418875Y-127918435D01*
X125411275Y-127948778D01*
X125400737Y-127978230D01*
X125387362Y-128006508D01*
X125371281Y-128033338D01*
X125352647Y-128058463D01*
X125331640Y-128081640D01*
X125308463Y-128102647D01*
X125283338Y-128121281D01*
X125256508Y-128137362D01*
X125228230Y-128150737D01*
X125198778Y-128161275D01*
X125168435Y-128168875D01*
X125137493Y-128173465D01*
X125106250Y-128175000D01*
X124393750Y-128175000D01*
X124362507Y-128173465D01*
X124331565Y-128168875D01*
X124301222Y-128161275D01*
X124271770Y-128150737D01*
X124243492Y-128137362D01*
X124216662Y-128121281D01*
X124191537Y-128102647D01*
X124168360Y-128081640D01*
X124147353Y-128058463D01*
X124128719Y-128033338D01*
X124112638Y-128006508D01*
X124099263Y-127978230D01*
X124088725Y-127948778D01*
X124081125Y-127918435D01*
X124076535Y-127887493D01*
X124075000Y-127856250D01*
X124075000Y-127218750D01*
X124076535Y-127187507D01*
X124081125Y-127156565D01*
X124088725Y-127126222D01*
X124099263Y-127096770D01*
X124112638Y-127068492D01*
X124128719Y-127041662D01*
X124147353Y-127016537D01*
X124168360Y-126993360D01*
X124191537Y-126972353D01*
X124216662Y-126953719D01*
X124243492Y-126937638D01*
X124271770Y-126924263D01*
X124301222Y-126913725D01*
X124331565Y-126906125D01*
X124362507Y-126901535D01*
X124393750Y-126900000D01*
X125106250Y-126900000D01*
X125137493Y-126901535D01*
X125137493Y-126901535D01*
G37*
D14*
X124750000Y-127537500D03*
G04 #@! TD*
D13*
G04 #@! TO.C,C16*
G36*
X157887493Y-128826535D02*
X157918435Y-128831125D01*
X157948778Y-128838725D01*
X157978230Y-128849263D01*
X158006508Y-128862638D01*
X158033338Y-128878719D01*
X158058463Y-128897353D01*
X158081640Y-128918360D01*
X158102647Y-128941537D01*
X158121281Y-128966662D01*
X158137362Y-128993492D01*
X158150737Y-129021770D01*
X158161275Y-129051222D01*
X158168875Y-129081565D01*
X158173465Y-129112507D01*
X158175000Y-129143750D01*
X158175000Y-129856250D01*
X158173465Y-129887493D01*
X158168875Y-129918435D01*
X158161275Y-129948778D01*
X158150737Y-129978230D01*
X158137362Y-130006508D01*
X158121281Y-130033338D01*
X158102647Y-130058463D01*
X158081640Y-130081640D01*
X158058463Y-130102647D01*
X158033338Y-130121281D01*
X158006508Y-130137362D01*
X157978230Y-130150737D01*
X157948778Y-130161275D01*
X157918435Y-130168875D01*
X157887493Y-130173465D01*
X157856250Y-130175000D01*
X157218750Y-130175000D01*
X157187507Y-130173465D01*
X157156565Y-130168875D01*
X157126222Y-130161275D01*
X157096770Y-130150737D01*
X157068492Y-130137362D01*
X157041662Y-130121281D01*
X157016537Y-130102647D01*
X156993360Y-130081640D01*
X156972353Y-130058463D01*
X156953719Y-130033338D01*
X156937638Y-130006508D01*
X156924263Y-129978230D01*
X156913725Y-129948778D01*
X156906125Y-129918435D01*
X156901535Y-129887493D01*
X156900000Y-129856250D01*
X156900000Y-129143750D01*
X156901535Y-129112507D01*
X156906125Y-129081565D01*
X156913725Y-129051222D01*
X156924263Y-129021770D01*
X156937638Y-128993492D01*
X156953719Y-128966662D01*
X156972353Y-128941537D01*
X156993360Y-128918360D01*
X157016537Y-128897353D01*
X157041662Y-128878719D01*
X157068492Y-128862638D01*
X157096770Y-128849263D01*
X157126222Y-128838725D01*
X157156565Y-128831125D01*
X157187507Y-128826535D01*
X157218750Y-128825000D01*
X157856250Y-128825000D01*
X157887493Y-128826535D01*
X157887493Y-128826535D01*
G37*
D14*
X157537500Y-129500000D03*
D13*
G36*
X156312493Y-128826535D02*
X156343435Y-128831125D01*
X156373778Y-128838725D01*
X156403230Y-128849263D01*
X156431508Y-128862638D01*
X156458338Y-128878719D01*
X156483463Y-128897353D01*
X156506640Y-128918360D01*
X156527647Y-128941537D01*
X156546281Y-128966662D01*
X156562362Y-128993492D01*
X156575737Y-129021770D01*
X156586275Y-129051222D01*
X156593875Y-129081565D01*
X156598465Y-129112507D01*
X156600000Y-129143750D01*
X156600000Y-129856250D01*
X156598465Y-129887493D01*
X156593875Y-129918435D01*
X156586275Y-129948778D01*
X156575737Y-129978230D01*
X156562362Y-130006508D01*
X156546281Y-130033338D01*
X156527647Y-130058463D01*
X156506640Y-130081640D01*
X156483463Y-130102647D01*
X156458338Y-130121281D01*
X156431508Y-130137362D01*
X156403230Y-130150737D01*
X156373778Y-130161275D01*
X156343435Y-130168875D01*
X156312493Y-130173465D01*
X156281250Y-130175000D01*
X155643750Y-130175000D01*
X155612507Y-130173465D01*
X155581565Y-130168875D01*
X155551222Y-130161275D01*
X155521770Y-130150737D01*
X155493492Y-130137362D01*
X155466662Y-130121281D01*
X155441537Y-130102647D01*
X155418360Y-130081640D01*
X155397353Y-130058463D01*
X155378719Y-130033338D01*
X155362638Y-130006508D01*
X155349263Y-129978230D01*
X155338725Y-129948778D01*
X155331125Y-129918435D01*
X155326535Y-129887493D01*
X155325000Y-129856250D01*
X155325000Y-129143750D01*
X155326535Y-129112507D01*
X155331125Y-129081565D01*
X155338725Y-129051222D01*
X155349263Y-129021770D01*
X155362638Y-128993492D01*
X155378719Y-128966662D01*
X155397353Y-128941537D01*
X155418360Y-128918360D01*
X155441537Y-128897353D01*
X155466662Y-128878719D01*
X155493492Y-128862638D01*
X155521770Y-128849263D01*
X155551222Y-128838725D01*
X155581565Y-128831125D01*
X155612507Y-128826535D01*
X155643750Y-128825000D01*
X156281250Y-128825000D01*
X156312493Y-128826535D01*
X156312493Y-128826535D01*
G37*
D14*
X155962500Y-129500000D03*
G04 #@! TD*
D13*
G04 #@! TO.C,C17*
G36*
X183312493Y-128826535D02*
X183343435Y-128831125D01*
X183373778Y-128838725D01*
X183403230Y-128849263D01*
X183431508Y-128862638D01*
X183458338Y-128878719D01*
X183483463Y-128897353D01*
X183506640Y-128918360D01*
X183527647Y-128941537D01*
X183546281Y-128966662D01*
X183562362Y-128993492D01*
X183575737Y-129021770D01*
X183586275Y-129051222D01*
X183593875Y-129081565D01*
X183598465Y-129112507D01*
X183600000Y-129143750D01*
X183600000Y-129856250D01*
X183598465Y-129887493D01*
X183593875Y-129918435D01*
X183586275Y-129948778D01*
X183575737Y-129978230D01*
X183562362Y-130006508D01*
X183546281Y-130033338D01*
X183527647Y-130058463D01*
X183506640Y-130081640D01*
X183483463Y-130102647D01*
X183458338Y-130121281D01*
X183431508Y-130137362D01*
X183403230Y-130150737D01*
X183373778Y-130161275D01*
X183343435Y-130168875D01*
X183312493Y-130173465D01*
X183281250Y-130175000D01*
X182643750Y-130175000D01*
X182612507Y-130173465D01*
X182581565Y-130168875D01*
X182551222Y-130161275D01*
X182521770Y-130150737D01*
X182493492Y-130137362D01*
X182466662Y-130121281D01*
X182441537Y-130102647D01*
X182418360Y-130081640D01*
X182397353Y-130058463D01*
X182378719Y-130033338D01*
X182362638Y-130006508D01*
X182349263Y-129978230D01*
X182338725Y-129948778D01*
X182331125Y-129918435D01*
X182326535Y-129887493D01*
X182325000Y-129856250D01*
X182325000Y-129143750D01*
X182326535Y-129112507D01*
X182331125Y-129081565D01*
X182338725Y-129051222D01*
X182349263Y-129021770D01*
X182362638Y-128993492D01*
X182378719Y-128966662D01*
X182397353Y-128941537D01*
X182418360Y-128918360D01*
X182441537Y-128897353D01*
X182466662Y-128878719D01*
X182493492Y-128862638D01*
X182521770Y-128849263D01*
X182551222Y-128838725D01*
X182581565Y-128831125D01*
X182612507Y-128826535D01*
X182643750Y-128825000D01*
X183281250Y-128825000D01*
X183312493Y-128826535D01*
X183312493Y-128826535D01*
G37*
D14*
X182962500Y-129500000D03*
D13*
G36*
X184887493Y-128826535D02*
X184918435Y-128831125D01*
X184948778Y-128838725D01*
X184978230Y-128849263D01*
X185006508Y-128862638D01*
X185033338Y-128878719D01*
X185058463Y-128897353D01*
X185081640Y-128918360D01*
X185102647Y-128941537D01*
X185121281Y-128966662D01*
X185137362Y-128993492D01*
X185150737Y-129021770D01*
X185161275Y-129051222D01*
X185168875Y-129081565D01*
X185173465Y-129112507D01*
X185175000Y-129143750D01*
X185175000Y-129856250D01*
X185173465Y-129887493D01*
X185168875Y-129918435D01*
X185161275Y-129948778D01*
X185150737Y-129978230D01*
X185137362Y-130006508D01*
X185121281Y-130033338D01*
X185102647Y-130058463D01*
X185081640Y-130081640D01*
X185058463Y-130102647D01*
X185033338Y-130121281D01*
X185006508Y-130137362D01*
X184978230Y-130150737D01*
X184948778Y-130161275D01*
X184918435Y-130168875D01*
X184887493Y-130173465D01*
X184856250Y-130175000D01*
X184218750Y-130175000D01*
X184187507Y-130173465D01*
X184156565Y-130168875D01*
X184126222Y-130161275D01*
X184096770Y-130150737D01*
X184068492Y-130137362D01*
X184041662Y-130121281D01*
X184016537Y-130102647D01*
X183993360Y-130081640D01*
X183972353Y-130058463D01*
X183953719Y-130033338D01*
X183937638Y-130006508D01*
X183924263Y-129978230D01*
X183913725Y-129948778D01*
X183906125Y-129918435D01*
X183901535Y-129887493D01*
X183900000Y-129856250D01*
X183900000Y-129143750D01*
X183901535Y-129112507D01*
X183906125Y-129081565D01*
X183913725Y-129051222D01*
X183924263Y-129021770D01*
X183937638Y-128993492D01*
X183953719Y-128966662D01*
X183972353Y-128941537D01*
X183993360Y-128918360D01*
X184016537Y-128897353D01*
X184041662Y-128878719D01*
X184068492Y-128862638D01*
X184096770Y-128849263D01*
X184126222Y-128838725D01*
X184156565Y-128831125D01*
X184187507Y-128826535D01*
X184218750Y-128825000D01*
X184856250Y-128825000D01*
X184887493Y-128826535D01*
X184887493Y-128826535D01*
G37*
D14*
X184537500Y-129500000D03*
G04 #@! TD*
D13*
G04 #@! TO.C,C18*
G36*
X131137493Y-128826535D02*
X131168435Y-128831125D01*
X131198778Y-128838725D01*
X131228230Y-128849263D01*
X131256508Y-128862638D01*
X131283338Y-128878719D01*
X131308463Y-128897353D01*
X131331640Y-128918360D01*
X131352647Y-128941537D01*
X131371281Y-128966662D01*
X131387362Y-128993492D01*
X131400737Y-129021770D01*
X131411275Y-129051222D01*
X131418875Y-129081565D01*
X131423465Y-129112507D01*
X131425000Y-129143750D01*
X131425000Y-129856250D01*
X131423465Y-129887493D01*
X131418875Y-129918435D01*
X131411275Y-129948778D01*
X131400737Y-129978230D01*
X131387362Y-130006508D01*
X131371281Y-130033338D01*
X131352647Y-130058463D01*
X131331640Y-130081640D01*
X131308463Y-130102647D01*
X131283338Y-130121281D01*
X131256508Y-130137362D01*
X131228230Y-130150737D01*
X131198778Y-130161275D01*
X131168435Y-130168875D01*
X131137493Y-130173465D01*
X131106250Y-130175000D01*
X130468750Y-130175000D01*
X130437507Y-130173465D01*
X130406565Y-130168875D01*
X130376222Y-130161275D01*
X130346770Y-130150737D01*
X130318492Y-130137362D01*
X130291662Y-130121281D01*
X130266537Y-130102647D01*
X130243360Y-130081640D01*
X130222353Y-130058463D01*
X130203719Y-130033338D01*
X130187638Y-130006508D01*
X130174263Y-129978230D01*
X130163725Y-129948778D01*
X130156125Y-129918435D01*
X130151535Y-129887493D01*
X130150000Y-129856250D01*
X130150000Y-129143750D01*
X130151535Y-129112507D01*
X130156125Y-129081565D01*
X130163725Y-129051222D01*
X130174263Y-129021770D01*
X130187638Y-128993492D01*
X130203719Y-128966662D01*
X130222353Y-128941537D01*
X130243360Y-128918360D01*
X130266537Y-128897353D01*
X130291662Y-128878719D01*
X130318492Y-128862638D01*
X130346770Y-128849263D01*
X130376222Y-128838725D01*
X130406565Y-128831125D01*
X130437507Y-128826535D01*
X130468750Y-128825000D01*
X131106250Y-128825000D01*
X131137493Y-128826535D01*
X131137493Y-128826535D01*
G37*
D14*
X130787500Y-129500000D03*
D13*
G36*
X129562493Y-128826535D02*
X129593435Y-128831125D01*
X129623778Y-128838725D01*
X129653230Y-128849263D01*
X129681508Y-128862638D01*
X129708338Y-128878719D01*
X129733463Y-128897353D01*
X129756640Y-128918360D01*
X129777647Y-128941537D01*
X129796281Y-128966662D01*
X129812362Y-128993492D01*
X129825737Y-129021770D01*
X129836275Y-129051222D01*
X129843875Y-129081565D01*
X129848465Y-129112507D01*
X129850000Y-129143750D01*
X129850000Y-129856250D01*
X129848465Y-129887493D01*
X129843875Y-129918435D01*
X129836275Y-129948778D01*
X129825737Y-129978230D01*
X129812362Y-130006508D01*
X129796281Y-130033338D01*
X129777647Y-130058463D01*
X129756640Y-130081640D01*
X129733463Y-130102647D01*
X129708338Y-130121281D01*
X129681508Y-130137362D01*
X129653230Y-130150737D01*
X129623778Y-130161275D01*
X129593435Y-130168875D01*
X129562493Y-130173465D01*
X129531250Y-130175000D01*
X128893750Y-130175000D01*
X128862507Y-130173465D01*
X128831565Y-130168875D01*
X128801222Y-130161275D01*
X128771770Y-130150737D01*
X128743492Y-130137362D01*
X128716662Y-130121281D01*
X128691537Y-130102647D01*
X128668360Y-130081640D01*
X128647353Y-130058463D01*
X128628719Y-130033338D01*
X128612638Y-130006508D01*
X128599263Y-129978230D01*
X128588725Y-129948778D01*
X128581125Y-129918435D01*
X128576535Y-129887493D01*
X128575000Y-129856250D01*
X128575000Y-129143750D01*
X128576535Y-129112507D01*
X128581125Y-129081565D01*
X128588725Y-129051222D01*
X128599263Y-129021770D01*
X128612638Y-128993492D01*
X128628719Y-128966662D01*
X128647353Y-128941537D01*
X128668360Y-128918360D01*
X128691537Y-128897353D01*
X128716662Y-128878719D01*
X128743492Y-128862638D01*
X128771770Y-128849263D01*
X128801222Y-128838725D01*
X128831565Y-128831125D01*
X128862507Y-128826535D01*
X128893750Y-128825000D01*
X129531250Y-128825000D01*
X129562493Y-128826535D01*
X129562493Y-128826535D01*
G37*
D14*
X129212500Y-129500000D03*
G04 #@! TD*
D20*
G04 #@! TO.C,MH5*
X188000000Y-58000000D03*
G04 #@! TD*
G04 #@! TO.C,MH6*
X182000000Y-58000000D03*
G04 #@! TD*
G04 #@! TO.C,MH7*
X161000000Y-58000000D03*
G04 #@! TD*
G04 #@! TO.C,MH8*
X155000000Y-58000000D03*
G04 #@! TD*
G04 #@! TO.C,MH9*
X134000000Y-58000000D03*
G04 #@! TD*
G04 #@! TO.C,MH10*
X128000000Y-58000000D03*
G04 #@! TD*
M02*
